<svg width="347.000000" height="355.000000" viewBox="0 0 347 355" fill="none" xmlns="http://www.w3.org/2000/svg" xmlns:xlink="http://www.w3.org/1999/xlink">
	<desc>
			Created with Pixso.
	</desc>
	<defs>
		<clipPath id="clip10_228">
			<rect id="logo" width="347.000000" height="355.000000" fill="white" fill-opacity="0"/>
		</clipPath>
	</defs>
	<g clip-path="url(#clip10_228)">
		<path id="path" d="M173.62 81.31C120.92 81.31 78.21 123.73 78.21 176.08C78.21 219.31 107.35 255.78 147.18 267.16C148.18 265.05 149.04 262.87 149.96 260.73C151.42 257.38 153.11 254.14 155.03 251.03C156.89 247.82 159.01 244.8 161.4 241.95C163.7 239.3 166.49 236.62 169.77 235.23C171.13 234.66 172.55 234.36 174.03 234.32C175.51 234.28 176.95 234.51 178.34 235C181.23 236.01 183.77 237.88 185.93 240.01C190.74 244.79 193.71 250.9 195.55 257.35C196.52 260.8 197.15 264.31 197.44 267.89C238.6 257.38 269.02 220.26 269.02 176.09C269.02 123.73 226.31 81.31 173.62 81.31Z" fill="#FFFFFF" fill-opacity="1.000000" fill-rule="nonzero"/>
		<path id="path" d="M198.26 159.38C198.26 159.57 198.26 159.76 198.26 159.96C198.26 160.15 198.28 160.39 198.61 160.39C198.66 160.4 198.71 160.4 198.76 160.39C198.98 160.33 199.06 160.19 199 159.98C199 159.66 199 159.34 199 159.02C199 158.2 198.95 158.1 198.68 158.21C198.22 158.4 197.42 158.26 197.54 159.14C197.95 158.66 198.22 158.65 198.26 159.38Z" fill="#010B2D" fill-opacity="1.000000" fill-rule="nonzero"/>
		<path id="path" d="M230.01 183.13L230.15 183.13C230.15 182.75 230.15 182.35 230.15 181.97C230.06 181.05 230.52 181.04 231.18 181.32C231.49 181.44 231.5 181.43 231.85 181.07L229.91 181.07C230.01 181.75 230.07 182.44 230.01 183.13Z" fill="#010B2D" fill-opacity="1.000000" fill-rule="nonzero"/>
		<path id="path" d="M265.01 220.99L264.62 220.99L264.62 223.22C264.62 224.48 264.62 224.48 263.33 224.48C262.03 224.48 260.65 224.45 259.31 224.48C258.71 224.5 258.53 224.32 258.54 223.72C258.57 220.98 258.54 218.22 258.54 215.47C258.54 204.51 258.54 193.54 258.54 182.57C258.54 181.79 258.39 181.53 257.54 181.54C254.77 181.6 252 181.54 249.22 181.58C248.17 181.58 247.15 181.37 246.1 181.38C245.43 181.38 245.61 180.92 245.61 180.58C245.61 177.76 245.71 174.94 245.58 172.13C245.29 166.06 245.47 159.98 245.41 153.9C245.41 153.47 245.36 153.1 245.84 152.75C246.24 152.48 246.15 151.86 245.56 151.59C244.86 151.28 244.82 150.95 245.52 150.58C245.11 150.1 244.6 149.96 243.99 150.15C243.49 150.28 242.7 150.27 243.19 151.28C243.33 151.5 243.38 151.74 243.32 152C243.27 152.26 243.12 152.46 242.9 152.6C242.89 152.62 242.87 152.63 242.85 152.63C242.71 152.67 242.66 152.75 242.69 152.89C243.34 154.06 243.18 155.39 243.21 156.62C243.26 159.73 243.32 162.84 243.21 165.94C243.03 170.89 243.03 175.81 243.05 180.78C243.05 181.45 242.82 181.58 242.21 181.56C240.48 181.53 238.75 181.59 237.02 181.54C236.32 181.54 236.16 181.74 236.16 182.4C236.19 186.12 236.13 189.84 236.21 193.56C236.21 194.51 235.86 194.62 235.09 194.55C234.11 194.47 233.36 194.21 233.41 193.03C233.43 192.76 233.36 192.51 233.2 192.29C233.03 192.08 232.82 191.93 232.55 191.87C232.38 191.85 232.25 191.76 232.15 191.63C232.05 191.49 232.01 191.34 232.04 191.18C232.12 188.73 231.88 186.28 232.17 183.84C232.24 183.21 231.61 181.98 231.19 181.93C230.62 181.87 230.13 181.91 230.28 182.7C230.35 182.89 230.29 183.02 230.1 183.09L229.88 183.09C229.55 183.02 229.81 182.61 229.5 182.42C229.5 184.25 229.45 185.99 229.5 187.74C229.54 188.88 229.23 189.98 229.27 191.11C229.27 191.54 229.11 192.01 228.58 192.01C227.84 192.01 227.71 192.44 227.71 192.99C227.75 193.46 227.56 193.58 227.11 193.59C225.53 193.65 225.44 193.51 225.33 191.94C225.14 189.19 224.78 186.46 224.6 183.72C224.49 182.03 224.33 180.34 224.17 178.65C223.92 175.92 223.6 173.18 223.42 170.44C223.3 168.73 223.15 167.06 222.98 165.37C222.74 162.63 222.59 159.88 222.22 157.16C222.17 156.79 221.99 156.25 222.73 156.3C222.99 156.32 223.13 156.21 223.16 155.95C223.17 155.92 223.17 155.9 223.16 155.87C223.16 155.1 223.16 154.32 223.16 153.54C223.19 153.42 223.15 153.33 223.04 153.25C222.94 153.18 222.84 153.18 222.73 153.24C222.4 153.35 222.73 153.51 222.73 153.67C222.76 153.92 223 154.28 222.53 154.36C222.06 154.43 222.24 154.05 222.2 153.83C221.89 152.14 221.89 150.45 222.2 148.77C222.32 148.13 222.06 147.7 221.46 147.64C220.42 147.52 219.38 147.52 218.34 147.64C217.45 147.76 217.4 148.39 217.54 149.07C217.81 150.37 217.81 151.67 217.54 152.97C217.49 153.16 217.5 153.35 217.58 153.53C217.88 154 217.58 154.21 217.23 154.3C216.76 154.42 216.73 154.05 216.71 153.71C216.71 153.54 216.79 153.31 216.41 153.23C216.29 154.11 216.28 154.98 216.38 155.87C216.39 156 216.46 156.11 216.57 156.18C217.87 156.11 217.27 157.08 217.3 157.59C217.39 159.94 217.31 162.29 217.08 164.64C216.89 167.31 216.71 170 216.38 172.67C216.19 174.19 216.07 175.72 215.95 177.25C215.75 179.31 215.45 181.36 215.21 183.41C215.05 184.81 214.93 186.21 214.78 187.61C214.54 189.89 214.27 192.17 214.04 194.46C213.87 196.08 213.76 197.71 213.61 199.33C213.55 199.93 213.44 200.53 213.36 201.15C211.4 200.54 209.41 200.4 207.39 200.72C206.53 200.86 205.61 200.89 204.8 200.29C204.07 199.75 203.17 199.71 202.29 199.79C201.69 199.84 201.35 199.69 201.47 199.01C201.47 198.98 201.47 198.95 201.47 198.92C201.59 186.53 201.13 174.15 201.27 161.76C201.27 160.24 201.23 160.2 199.7 160.39C199.38 160.42 199.07 160.54 198.75 160.57C197.38 160.65 197.25 160.5 197.44 159.11C196.48 158.77 196.62 157.87 196.6 157.18C196.53 155.04 196.6 152.85 196.55 150.69C196.55 150.16 196.98 149.69 196.49 149.06C195.83 148.24 195.29 149.15 194.68 148.98C194.3 148.88 194.44 149.41 194.44 149.66C194.42 153.04 194.74 156.41 194.64 159.8C194.64 160.36 194.49 160.58 193.87 160.6C192.83 160.63 191.8 160.83 190.75 160.77C189.7 160.71 189.5 160.48 189.7 159.42C189.74 159.17 189.7 158.91 189.73 158.65C189.77 158.39 189.99 158.27 189.83 157.92C188.71 158.47 187.64 159.09 186.62 159.8C186.26 159.63 186.4 159.33 186.39 159.1C186.39 156.61 186.32 154.11 186.42 151.63C186.47 150.58 186.58 149.52 186.59 148.46C186.59 148.03 186.53 147.6 186.16 147.46C185.65 147.31 185.13 147.29 184.61 147.42C184.44 147.42 184.48 147.68 184.45 147.85C184.28 148.98 184.22 150.11 184.26 151.25C184.26 153.64 184.26 156.04 184.26 158.43C184.24 159.07 184.16 159.7 184 160.33C183.81 161.28 183.04 160.52 182.49 160.68L182.49 165.78C181.43 164.32 180.2 163.41 180.23 161.48C180.28 158.48 180.02 155.5 179.9 152.52C179.78 149.85 179.63 147.19 179.51 144.52C179.37 141.66 179.25 138.8 179.11 135.93C178.97 133.07 178.74 130.16 178.75 127.26C178.75 126.95 178.61 126.55 178.96 126.37C179.77 125.94 179.68 125.43 179.2 124.82C179.15 124.73 179.13 124.64 179.14 124.54C179.25 122.99 178.94 121.46 178.96 119.92C178.96 117.97 179.2 116.03 179.1 114.09C179.02 112.43 179.1 110.78 179.16 109.11C179.18 108.3 178.86 107.53 178.95 106.72C179 106.23 178.69 105.61 179.45 105.35C179.53 105.22 179.55 105.07 179.5 104.92C178.35 104.1 179.07 102.94 178.98 101.95C178.85 100.56 178.86 100.51 177.4 100.43C176.29 100.37 175.21 100.65 174.1 100.64C173.48 100.64 173.47 101.07 173.47 101.5L173.47 107.64C173.47 109.35 173.59 111.07 173.44 112.79C173.27 114.82 173.71 116.86 173.29 118.89C173.12 119.77 173.66 120.67 173.46 121.57C173.17 122.82 173.58 124.15 173.09 125.36C173.04 125.52 173.04 125.68 173.09 125.85C173.85 128.99 172.99 132.11 172.89 135.24C172.86 136.36 172.83 137.48 172.73 138.6C172.48 141.36 172.48 144.13 172.29 146.88C172.07 150.15 171.86 153.42 171.69 156.69C171.59 158.74 171.43 160.78 171.3 162.83C171.11 166.07 170.87 169.3 170.72 172.54C170.6 174.62 170.46 176.7 170.32 178.78C170.12 181.78 169.89 184.79 169.77 187.79C169.77 188.29 169.55 188.37 169.12 188.37C167.66 188.37 166.19 188.34 164.72 188.37C164.19 188.37 164.07 188.19 164.07 187.7C164.07 182.98 164.03 178.26 164.11 173.53C164.11 172.29 164.48 171.07 163.77 169.91C162.65 168.05 160.86 167.45 158.82 167.18C157.11 167.02 155.39 166.97 153.67 167.02C153.19 167.02 152.91 166.97 152.86 166.38C152.8 165.78 152.72 165.23 152.72 164.66C152.72 156.28 152.72 147.92 152.74 139.52C152.74 138.66 152.55 138.39 151.67 138.48C149.98 138.66 148.29 138.67 146.59 138.71C145.65 138.71 145.42 138.4 145.46 137.53C145.52 136.17 145.46 134.81 145.46 133.45C145.46 133.02 145.56 132.54 144.86 132.46C144.25 132.39 143.56 132.35 143.4 132.96C143.19 133.93 142.58 133.82 141.9 133.82C139.7 133.79 139.99 134.09 139.98 131.91C139.98 127.19 139.98 122.46 139.98 117.74C139.98 117.07 139.87 116.39 140.15 115.74C140.24 115.55 140.24 115.36 140.15 115.17C139.5 114.49 139.95 113.96 140.61 113.25C139.01 113.25 137.67 113.25 136.33 113.25C136.16 113.27 136.04 113.36 135.95 113.5C135.86 113.72 135.92 113.87 136.14 113.96C136.31 114.07 136.69 114.08 136.56 114.39C135.93 115.84 136.66 117.29 136.51 118.75C136.42 120.24 136.41 121.72 136.47 123.21L136.47 127.77C136.47 129.26 136.5 130.75 136.47 132.23C136.44 133.84 136.47 135.45 136.5 137.05C136.5 137.74 136.32 138.02 135.64 137.91C134.77 137.77 134.47 138.07 134.5 138.99C134.58 141.13 134.48 143.32 134.54 145.49C134.64 148.82 134.24 152.14 134.34 155.47C134.34 156 134.23 156.29 133.64 156.13C132.45 155.8 131.23 155.93 130.04 156.01C127.29 156.2 124.53 156.2 121.77 156.01C121.45 155.97 121.13 156 120.81 156.09C120.5 156.18 120.21 156.33 119.96 156.53C119.7 156.74 119.5 156.98 119.34 157.27C119.18 157.55 119.09 157.86 119.05 158.18C119.04 158.3 119.04 158.42 119.05 158.54C119.09 178.05 119.09 197.55 119.05 217.06C119.05 217.44 119.4 218.13 118.49 218.07C118.35 218.09 118.22 218.06 118.1 217.98C117.99 217.89 117.92 217.78 117.9 217.64C117.9 217.62 117.9 217.59 117.9 217.57C117.86 216.88 117.66 216.22 117.82 215.48C118.11 214.24 117.68 212.96 117.88 211.69C117.91 211.56 117.89 211.44 117.82 211.33C116.73 210.86 117.12 209.9 117.12 209.13C117.1 190.73 117.09 172.32 117.09 153.91C117.09 153.01 117.33 152.76 118.21 152.81C119.41 152.89 120.62 152.86 121.83 152.81C122.45 152.81 122.94 152.81 122.82 153.64C122.79 153.95 122.94 154.13 123.25 154.16C123.58 153.73 123.25 153.16 123.49 152.66C123.97 152.85 124.47 152.9 124.98 152.81C125.76 152.76 125.92 153.03 125.52 153.67C125.3 153.99 125.16 154.33 125.09 154.71C125.37 154.42 125.77 154.18 125.89 153.85C126.22 152.92 126.85 152.69 127.75 152.82C128.17 152.85 128.6 152.85 129.02 152.82C129.84 152.78 130.71 152.66 130.47 153.96C130.44 154.15 130.62 154.3 131.02 154.36C131.02 153.79 131.02 153.24 131.02 152.69C131.02 152.4 130.87 152.26 130.58 152.26C129.47 152.03 128.35 152 127.22 152.18C126.34 152.35 125.46 152.33 124.59 152.14C123.05 151.8 121.65 152.57 120.18 152.26C119.59 152.14 118.97 152.26 118.35 152.09C117.3 151.82 116.5 152.38 116.25 153.44C116.18 153.78 116.16 154.13 116.17 154.49C116.17 161.99 116.11 169.51 116.17 177C116.27 188.03 115.87 199.06 115.96 210.09C115.96 210.34 116.01 210.72 115.87 210.82C114.98 211.48 115.27 212.29 115.34 213.17C115.46 214.61 115.34 216.08 115.38 217.53C115.38 217.99 115.17 218.07 114.79 218.06C113.74 218.06 112.7 218.06 111.65 218.06C111.36 218.06 111.06 218.09 111.06 217.63C111.06 216.41 111.06 215.19 111.06 213.87C111.45 214.09 111.72 214.23 111.99 214.39C112.16 214.55 112.33 214.54 112.49 214.36C112.52 214.33 112.54 214.29 112.56 214.26C112.63 213.66 113.02 213.67 113.49 213.53C114.12 213.35 113.8 212.7 113.72 212.31C113.63 212.07 113.61 211.83 113.66 211.59C113.87 210.73 113.19 210.38 112.52 210.3C111.66 210.22 111.6 209.72 111.66 209.11C111.72 208.49 111.29 207.73 112.44 207.72C113.19 207.72 112.79 206.91 113.09 206.51C113.66 205.74 113.17 204.72 112.22 204.46C111.54 204.26 111.73 203.66 111.68 203.29C111.61 202.42 111.59 201.55 111.64 200.68C111.64 200.41 111.64 200.17 112.03 200.16C112.97 200.13 111.85 198.78 112.89 198.82C113.55 198.82 114.12 198.85 114.14 197.96C114.14 197.25 114.2 196.53 114.19 195.82C114.25 195.56 114.15 195.41 113.89 195.36C113.8 195.34 113.71 195.35 113.62 195.4C113.19 195.51 112.76 195.55 112.28 195.62C112.2 194.85 112.11 194.08 112.06 193.32C112.03 192.85 111.91 192.34 112.7 192.34C112.82 192.32 112.92 192.26 112.99 192.16C113.06 192.06 113.08 191.95 113.05 191.83C113.05 191.8 113.04 191.76 113.02 191.73C112.81 191.07 112.91 190.39 112.77 189.74C112.72 189.35 112.54 189.04 112.23 188.8C111.92 188.56 111.57 188.47 111.18 188.52C110.91 188.52 110.56 188.62 110.4 188.28C109.77 186.93 108.48 186.56 107.21 186.22C107.08 186.21 106.97 186.16 106.88 186.06C106.79 185.97 106.75 185.85 106.75 185.72L106.75 185.64C106.75 185.42 106.75 185.21 106.75 184.96C106.75 167.91 106.66 150.87 106.84 133.82C106.87 130.95 107.05 128.04 107.14 125.16C107.14 124.83 107.14 124.52 107.14 124.27C107.05 124.1 106.92 124.06 106.76 124.15C105.13 124.54 105 124.44 105 122.79L105 102.47C105 101.9 104.83 101.23 105.82 101.4C106.14 101.46 106.17 101.19 106.17 100.97L106.17 98.32L105.6 98.45C104.52 98.67 104.42 98.6 104.41 97.52C104.41 96.71 104.41 95.91 104.41 95.1C104.41 93.52 104.41 93.52 105.97 93.43L105.97 90.38C105.67 90.86 105.24 91.05 104.67 90.95C104.16 90.9 103.78 90.8 104.24 90.21C104.33 90.09 103.61 87.55 103.47 87.48C103.34 87.39 103.2 87.33 103.04 87.31C101.62 87.31 100.18 87.08 98.78 87.47C98.44 87.56 98.12 87.65 98.13 88.14C98.14 88.63 98.36 89.32 97.64 89.67C97.46 89.76 97.7 89.94 97.7 90.1C97.7 90.53 97.93 90.98 97.56 91.39C97.42 91.77 97.35 92.17 97.35 92.58C97.4 92.95 97.31 93.36 96.84 93.29C96.47 93.22 95.87 93.25 95.97 92.57C96.05 92.02 95.77 91.43 96.15 90.91C95.97 90.81 95.72 90.23 95.63 90.91C95.54 91.6 95.63 92.4 95.63 93.14C95.63 93.68 96.03 93.48 96.25 93.45C97.11 93.3 97.47 93.71 97.5 94.48C97.54 95.6 97.54 96.74 97.57 97.87C97.57 98.3 97.37 98.36 97.03 98.33C96.77 98.33 96.5 98.36 96.25 98.33C95.65 98.27 95.33 98.43 95.41 99.11C95.44 99.59 95.44 100.08 95.41 100.56C95.41 100.99 95.32 101.34 96.03 101.32C96.54 101.32 96.38 101.91 96.38 102.27C96.38 107.99 96.38 113.71 96.38 119.44C96.38 121.15 96.43 122.87 96.26 124.59C96.17 125.37 95.82 125.4 95.26 125.31C95.04 125.28 94.83 125.17 94.61 125.15C93.85 125.05 93.43 125.21 93.43 126.16C93.46 143.85 93.46 161.54 93.43 179.23C93.43 179.93 93.64 180.16 94.29 180.09C94.64 180.05 95.02 180.13 95.37 180.09C96.23 179.96 96.41 180.62 96.31 181.13C96.02 182.68 96.23 184.22 96.18 185.76C96.18 186.4 96 186.67 95.32 186.72C94.78 186.79 94.27 186.94 93.79 187.19C93.31 187.43 92.88 187.75 92.52 188.14C92.15 188.53 91.86 188.98 91.64 189.47C91.43 189.97 91.31 190.48 91.28 191.02C91.28 201.78 90.96 212.55 91.1 223.32C91.1 224.2 90.86 224.38 90.03 224.37C86.96 224.32 86.96 224.37 86.96 221.36C86.96 206.39 86.96 191.42 86.96 176.44C86.96 175.91 86.78 175.3 87.73 175.05C86.37 174.74 86.69 173.79 86.58 173.07C86.48 172.43 87.01 172.33 87.48 172.34C87.48 171.62 85.98 172.34 86.51 171.1C86.17 171.58 86.01 172.09 85.37 172.01C85.21 172.01 85.15 172.31 85.26 172.39C86.19 173 85.31 173.86 85.58 174.54C85.63 174.66 85.59 174.74 85.47 174.79C85.44 174.79 85.41 174.79 85.38 174.79C85.16 174.79 85.25 174.53 84.98 174.39L84.98 224.26C84.27 223.95 84.43 223.52 84.42 223.17C84.36 222.18 84.45 221.21 84.16 220.22C83.99 219.49 83.62 218.9 83.04 218.43C82.46 217.96 81.79 217.72 81.05 217.7C80.32 217.64 79.89 217.42 79.81 216.61C79.69 215.41 79.35 214.22 79.38 213.02C79.38 211.34 79.07 209.68 79.14 208C79.27 204.9 79.03 201.81 78.9 198.72C78.7 193.76 78.58 188.79 78.54 183.83C78.51 180.83 78.3 177.85 78.17 174.86C78.14 174.16 78.03 173.42 78.89 173.09C79.37 172.63 79.08 172.07 79.13 171.46C78.19 171.89 77.97 171.52 77.96 170.66C77.92 168.63 78.18 166.59 77.79 164.57C77.75 164.43 77.76 164.29 77.83 164.16C77.91 164.02 78.01 163.94 78.16 163.89C78.23 163.88 78.31 163.88 78.38 163.89C78.62 163.88 78.73 163.76 78.73 163.53C78.68 163.31 78.49 163.39 78.34 163.41C78.1 163.44 77.9 163.19 78.02 163.08C78.65 162.48 78.23 162.18 77.75 161.85C77.67 161.75 77.62 161.64 77.6 161.51C77.46 161.16 77.89 160.52 77.26 160.47C76.32 160.38 74.99 160.04 74.51 160.82C74.03 161.61 73 162.48 73.52 163.5C74.66 165.81 73.76 168.21 74.08 170.53C74.17 171.22 73.68 171.85 74.03 172.59C74.23 173.02 73.55 172.97 73.25 173.21C73.62 173.6 73.76 174.07 73.68 174.61C73.6 177.86 73.62 181.12 73.45 184.38C73.25 188.21 73.18 192.04 73.05 195.87C72.9 200.25 72.8 204.63 72.62 209.02C72.54 211.16 72.56 213.27 72.47 215.4C72.47 215.94 72.33 216.47 72.27 217.01C72.26 217.16 72.2 217.28 72.08 217.37C71.97 217.47 71.84 217.51 71.69 217.5C69.4 217.78 68.09 218.94 68.18 221.66C68.18 221.95 68.18 222.24 68.18 222.52C68.18 224.49 68.18 224.43 66.19 224.49C65.07 224.53 64.92 223.85 64.85 223.07C64.84 222.8 64.84 222.52 64.85 222.25L64.46 222.22L64.46 224.85C64.84 225.08 64.65 225.44 64.65 225.73C64.65 237.51 64.65 249.28 64.65 261.06C64.65 261.34 64.84 261.7 64.46 261.91L64.46 262.11C65.06 262.27 65.67 262.33 66.29 262.3L150.61 262.3C151.48 257.99 152.94 253.88 154.98 249.98C157.72 244.94 161.94 240.47 167.41 238.39C170.33 237.29 173.35 236.76 176.48 236.82C177.98 236.83 179.46 237.02 180.92 237.39C182.28 237.77 183.5 238.41 184.58 239.3C186.91 241.17 188.53 243.78 189.97 246.34C190.73 247.62 191.41 248.94 192.02 250.3C192.63 251.77 193.09 253.29 193.4 254.85C193.88 257.31 194.1 259.8 194.08 262.3L259.12 262.3C260.73 262.3 262.34 261.88 263.96 262.3C264.68 262.49 264.78 262.06 264.78 261.45C264.78 253.59 264.78 245.73 264.78 237.87C264.78 234 264.74 230.17 264.74 226.32C264.74 225.98 264.62 225.55 264.99 225.26L265.01 220.99ZM96.01 178.84C95.79 179.27 95.37 179.01 95.04 179.05C94.72 179.1 94.45 179.05 94.48 178.69C94.54 177.62 94.23 176.51 94.66 175.46C94.68 175.4 94.78 175.33 94.77 175.31C93.65 173.56 94.31 171.62 94.3 169.8C94.23 155.5 94.26 141.21 94.26 126.92C94.26 126.43 94.12 125.8 94.98 125.88C95.62 125.94 96.06 126.06 96.06 126.94C96.02 142.79 96.02 158.63 96.06 174.47C96.06 175.09 96.08 175.62 95.09 175.37C95.88 176.08 96.39 178.1 96.01 178.84ZM78.49 172.07C78.92 172.07 79.01 172.38 78.99 172.73C78.98 172.85 78.92 172.97 78.89 173.09C78.8 173.07 78.75 173.07 78.66 173.08C78.12 173.18 78.12 172.71 78.05 172.43C77.97 172.15 78.25 172.06 78.49 172.07ZM97.41 99.74C97.33 100.17 97.46 100.82 96.81 100.79C96.16 100.76 95.61 100.46 95.79 99.83C95.88 99.24 95.66 98.66 96.34 98.72C96.91 98.77 97.6 98.81 97.41 99.74ZM105.19 91.29C105.84 91.29 105.84 91.6 105.85 92.07C105.85 92.54 105.85 92.93 105.15 92.9C104.45 92.87 104.39 92.59 104.47 92.04C104.33 91.48 104.58 91.3 105.19 91.29ZM104.66 99.8C104.66 99.33 104.6 98.86 105.31 98.88C105.71 98.88 106.17 99.03 105.98 99.42C105.79 99.81 106.25 100.65 105.3 100.64C104.67 100.64 104.63 100.26 104.66 99.8ZM106.03 133.06L106.03 182.45C106.04 182.67 106.03 182.9 106 183.12C105.99 183.37 105.86 183.49 105.61 183.48C105.38 183.46 105.26 183.33 105.25 183.09C105.25 182.84 105.25 182.58 105.25 182.32L105.25 156.18C105.45 149.46 104.97 141.25 105.06 133.04C105.06 132.61 104.88 131.89 105.44 131.86C106.06 131.83 106.03 132.55 106.03 133.06ZM106.21 130.67C106.12 131.17 105.85 131.23 105.47 130.86C105.15 130.55 105.01 130.17 105.04 129.73C105.04 129.21 105.04 128.7 105.04 128.07C105.1 127.36 104.93 126.52 105.22 125.7C105.32 125.42 105.34 125.1 105.71 125.11C105.9 125.1 106.06 125.16 106.19 125.29C106.33 125.42 106.4 125.58 106.4 125.76C106.5 127.4 106.45 129.04 106.21 130.67ZM131.86 161.15C132.72 161.15 132.93 161.5 132.86 162.25C132.78 163.18 132.71 164.11 132.66 165.04C132.64 165.65 132.19 165.42 131.89 165.47C131.45 165.52 131.09 165.47 131.08 164.9C131.08 164.33 131.08 163.8 131.08 163.25C131.08 162.9 131.08 162.54 131.08 162.19C131.05 161.66 130.94 161.14 131.86 161.15ZM132.67 206.39C132.72 207.05 132.32 207.01 131.88 207.01C131.44 207.01 131.02 207.05 131.08 206.39C131.12 205.88 131.08 205.36 131.08 204.85C131.11 204.46 131.11 204.08 131.08 203.69C130.95 202.87 131.29 202.66 132.09 202.7C132.78 202.74 132.95 203.04 132.84 203.61C132.66 204.53 132.62 205.45 132.67 206.39ZM131.05 198.09C131.02 197.42 131.43 197.49 131.86 197.49C132.29 197.49 132.72 197.43 132.66 198.1C132.62 198.65 132.66 199.19 132.66 199.74C132.7 200.16 132.7 200.58 132.66 200.99C132.61 201.35 133.03 202.03 132.18 201.95C131.58 201.89 130.98 201.81 131.08 200.89C131.15 199.96 131.14 199.02 131.05 198.09ZM132.67 196.19C132.69 196.38 132.62 196.53 132.47 196.64C132.32 196.76 132.15 196.78 131.98 196.72C131.54 196.67 131.09 196.72 131.07 196.11C131.05 195.5 131.07 194.94 131.07 194.37C131.1 193.98 131.1 193.59 131.07 193.2C130.98 192.46 131.22 192.2 132.02 192.22C132.72 192.22 132.88 192.44 132.88 193.1C132.87 194.14 132.79 195.16 132.67 196.19ZM131.05 187.97C130.99 187.29 131.2 187 131.96 186.99C132.72 186.97 132.62 187.46 132.63 187.92C132.6 188.85 132.65 189.78 132.78 190.7C132.86 191.08 132.78 191.38 132.31 191.28C131.83 191.18 131.2 191.67 131.08 190.85C131.04 190.3 131.04 189.76 131.08 189.21C131.07 188.8 131.1 188.38 131.05 187.97ZM131.05 178.84L131.05 177.8C131.05 176.8 131.61 176.43 132.55 176.74C132.78 176.8 132.87 176.95 132.82 177.17C132.84 178.26 132.79 179.35 132.68 180.43C132.54 181.26 132.04 180.95 131.63 181.01C131.03 181.1 131.04 180.71 131.05 180.3C131.09 179.8 131.05 179.32 131.05 178.84ZM131.05 168.48L131.05 167.23C131.05 166.23 131.25 166.08 132.24 166.24C132.49 166.23 132.63 166.35 132.64 166.6C132.68 167.72 132.85 168.86 132.82 169.98C132.8 170.81 132.27 170.66 131.76 170.7C131.25 170.75 131 170.55 131.04 170C131.09 169.46 131.05 169 131.05 168.48ZM131.05 183.93L131.05 182.87C131.05 181.82 131.45 181.54 132.49 181.77C132.88 181.86 132.82 182.11 132.82 182.35C132.82 183.35 132.79 184.35 132.82 185.36C132.85 186.19 132.28 186.02 131.77 186.08C131.13 186.15 131 185.85 131.04 185.3C131.1 184.84 131.05 184.39 131.05 183.93ZM131.55 171.49C132.18 171.52 132.73 171.61 132.65 172.52C132.56 173.46 132.6 174.39 132.76 175.32C132.86 175.88 132.49 176.01 132.05 175.93C131.69 175.87 131.06 176.28 131.06 175.45L131.06 173.73C131.02 173.31 131.02 172.9 131.06 172.48C131.15 172.11 130.71 171.44 131.55 171.49ZM130.87 169.82C130.93 170.68 130.42 170.68 129.77 170.72C129.12 170.76 128.81 170.57 128.9 169.86C128.93 169.38 128.93 168.9 128.9 168.41C128.93 168.03 128.93 167.64 128.9 167.25C128.76 166.37 129.12 166.17 129.97 166.2C130.67 166.22 130.96 166.35 130.9 167.1C130.83 168.01 130.81 168.91 130.87 169.82ZM130.67 180.37C130.67 181.18 130.1 180.95 129.66 180.99C129.22 181.03 128.85 180.99 128.89 180.35C128.94 179.46 128.94 178.56 128.89 177.66C128.84 176.94 129 176.52 129.81 176.73C130.84 176.53 130.93 177.29 130.83 177.88C130.7 178.71 130.64 179.53 130.67 180.37ZM128.9 173.64C128.9 173.28 128.9 172.93 128.9 172.57C128.9 171.44 129.38 171.18 130.43 171.67C130.62 171.75 130.7 171.89 130.67 172.1C130.67 173.03 130.67 173.96 130.67 174.89C130.7 175.14 130.63 175.36 130.47 175.55C130.31 175.75 130.1 175.85 129.85 175.88C129.78 175.89 129.72 175.89 129.65 175.88C129.06 175.88 128.79 175.49 128.88 174.86C128.92 174.46 128.92 174.04 128.9 173.64ZM130.89 161.94C130.85 162.84 130.84 163.75 130.89 164.65C130.94 165.55 130.3 165.43 129.72 165.48C129.14 165.53 128.81 165.37 128.89 164.7C128.93 164.22 128.89 163.73 128.89 163.25C128.91 162.93 128.91 162.61 128.89 162.28C128.71 161.28 129.19 161.1 130.08 161.17C130.64 161.22 130.91 161.33 130.89 161.94ZM126.57 162.29C126.55 161.97 126.64 161.69 126.86 161.44C127.07 161.2 127.34 161.07 127.66 161.05C127.9 161.04 128.12 161.09 128.33 161.21C128.52 161.32 128.59 161.48 128.53 161.69C128.53 162.24 128.53 162.79 128.53 163.34C128.53 163.66 128.53 163.98 128.53 164.3C128.53 164.94 128.62 165.49 127.62 165.5C126.63 165.5 126.57 165.02 126.56 164.32C126.56 163.62 126.57 162.96 126.57 162.29ZM126.57 166.98C126.52 166.05 127.16 166.27 127.69 166.23C128.23 166.19 128.64 166.23 128.55 166.97C128.52 167.46 128.52 167.94 128.55 168.43C128.55 168.75 128.55 169.07 128.55 169.39C128.55 170.88 128.55 170.84 127.13 170.56C126.98 170.56 126.85 170.51 126.74 170.41C126.63 170.31 126.57 170.18 126.56 170.03C126.55 169.98 126.55 169.93 126.56 169.88C126.59 168.92 126.61 167.94 126.57 166.98ZM128.55 175.04C128.55 175.97 127.88 175.7 127.38 175.75C126.87 175.8 126.49 175.75 126.57 175.06C126.59 174.55 126.59 174.03 126.57 173.52L126.57 172.74C126.57 171.27 126.57 171.3 128.02 171.63C128.16 171.62 128.29 171.67 128.39 171.77C128.49 171.87 128.54 171.98 128.55 172.13C128.55 172.16 128.55 172.2 128.55 172.24C128.52 173.19 128.52 174.11 128.55 175.04ZM126.38 194.42C126.38 194.74 126.38 195.07 126.38 195.39C126.38 195.96 126.61 196.58 125.55 196.56C124.57 196.56 124.42 196.09 124.42 195.34C124.42 194.6 124.47 193.79 124.42 193.03C124.38 192.37 124.63 192.26 125.24 192.22C126.16 192.15 126.58 192.4 126.41 193.36C126.37 193.72 126.36 194.06 126.38 194.42ZM124.42 173.67C124.44 173.28 124.44 172.9 124.42 172.51C124.32 171.7 124.64 171.46 125.46 171.45C126.28 171.43 126.48 171.69 126.4 172.43C126.3 173.35 126.26 174.28 126.19 175.2C126.14 176.02 125.51 175.68 125.09 175.75C124.6 175.83 124.38 175.65 124.42 175.12C124.46 174.6 124.42 174.15 124.42 173.67ZM125.56 176.73C126.04 176.65 126.5 176.68 126.39 177.39C126.37 177.67 126.37 177.96 126.39 178.25C126.53 178.96 126.14 179.73 126.18 180.54C126.21 181.35 125.58 180.93 125.24 180.97C124.9 181.01 124.41 181.19 124.42 180.51C124.42 179.46 124.33 178.41 124.39 177.35C124.45 176.29 125.12 176.8 125.56 176.73ZM126.38 189.12L126.38 190.09C126.38 191.3 126.29 191.37 125.03 191.3C124.89 191.32 124.75 191.29 124.63 191.21C124.51 191.13 124.44 191.01 124.41 190.87C124.39 190.8 124.39 190.73 124.41 190.66C124.41 189.7 124.41 188.72 124.41 187.75C124.41 186.9 125.05 187.06 125.57 187.01C126.1 186.96 126.44 187.16 126.38 187.77C126.35 188.22 126.38 188.66 126.38 189.12ZM124.47 182.16C124.47 181.53 125.18 181.81 125.6 181.78C126.01 181.75 126.39 181.84 126.38 182.38C126.37 182.93 126.38 183.48 126.38 184.03C126.38 184.39 126.41 184.75 126.38 185.1C126.35 185.56 126.61 186.2 125.75 186.24C125.05 186.27 124.45 186.33 124.3 185.32C124.14 184.23 124.5 183.22 124.47 182.16ZM126.38 168.6C126.41 168.89 126.41 169.17 126.38 169.46C126.31 169.89 126.69 170.53 126.13 170.64C125.58 170.74 124.84 171.07 124.43 170.25C124.33 170.04 124.31 170.11 124.24 170.25C123.87 171.07 123.18 170.68 122.65 170.58C122.12 170.48 122.3 169.91 122.28 169.52C122.26 168.85 122.28 168.17 122.28 167.49C122.28 166.16 122.33 166.04 123.64 166.25C124.28 166.29 124.91 166.27 125.55 166.2C126.16 166.2 126.46 166.38 126.41 167.03C126.35 167.58 126.38 168.08 126.38 168.6ZM124.03 189.21C124.03 189.56 124.03 189.91 124.03 190.27C124.03 190.78 124.22 191.33 123.28 191.32C122.41 191.32 122.22 190.97 122.25 190.22C122.31 189.45 122.31 188.68 122.25 187.91C122.2 187.19 122.41 186.98 123.16 186.98C123.9 186.98 124.12 187.27 124.05 187.95C124.02 188.37 124.02 188.79 124.03 189.21ZM122.26 194.32C122.29 193.96 122.29 193.61 122.26 193.25C122.09 192.31 122.59 192.19 123.36 192.24C123.83 192.27 124.07 192.33 124.05 192.88C124.01 193.91 124.02 194.94 124.05 195.98C124.08 196.79 123.49 196.49 123.1 196.52C122.72 196.55 122.21 196.67 122.27 195.96C122.3 195.42 122.26 194.87 122.26 194.32ZM124.03 183.99C124.03 184.42 124.03 184.83 124.03 185.25C124.06 185.81 124.14 186.3 123.24 186.27C122.47 186.24 122.21 186.02 122.25 185.26C122.28 184.33 122.27 183.39 122.19 182.46C122.15 181.87 122.39 181.69 122.91 181.78C123.35 181.85 124.12 181.43 124.04 182.44C124 182.95 124.03 183.48 124.03 183.99ZM123.47 180.99C122.83 180.91 122.13 180.91 122.24 179.88C122.31 178.95 122.31 178.01 122.24 177.08C122.21 176.28 122.81 176.56 123.2 176.54C123.58 176.52 124.09 176.37 124.06 177.09C124.02 177.63 124.06 178.18 124.06 178.73C124.09 179.15 124.09 179.57 124.06 179.99C123.96 180.37 124.37 181.08 123.47 180.99ZM124.03 173.69L124.03 174.75C124.03 175.28 124.19 175.8 123.27 175.79C122.41 175.79 122.21 175.47 122.25 174.7C122.31 173.87 122.31 173.03 122.25 172.2C122.21 171.58 122.46 171.43 123.03 171.46C123.61 171.49 124.1 171.46 124.04 172.24C124 172.73 124.03 173.21 124.03 173.69ZM126.04 161.19C126.3 161.21 126.42 161.35 126.39 161.62C126.39 161.63 126.39 161.65 126.39 161.67C126.39 162.67 126.39 163.67 126.39 164.67C126.39 165.56 125.8 165.47 125.19 165.49C124.47 165.53 124.4 165.13 124.43 164.58C124.43 164.13 124.43 163.68 124.43 163.22L124.43 162.45C124.42 161.2 124.81 160.91 126.04 161.19ZM124.39 157.8C124.83 157.82 125.26 157.96 125.22 158.62C125.19 159.14 125.12 159.52 124.47 159.44C123.86 159.55 123.64 159.19 123.64 158.68C123.64 158.17 123.86 157.77 124.39 157.8ZM121.09 158.55C121.09 158.48 121.09 158.42 121.09 158.36C121.13 157.99 121.34 157.79 121.72 157.78C122.2 158.1 122.81 157.39 123.17 157.97C123.49 158.33 123.53 158.71 123.31 159.13C123.15 159.4 122.93 159.59 122.74 159.38C122.28 158.88 121.02 160 121.09 158.55ZM120.68 161.62C120.68 161.46 120.74 161.33 120.85 161.21C120.96 161.1 121.09 161.04 121.25 161.04C121.33 161.04 121.41 161.05 121.48 161.08C121.7 161.14 121.92 161.18 122.14 161.2C124.23 161.27 124.23 161.27 124.22 163.33C124.23 163.74 124.21 164.16 124.14 164.57C124.11 164.76 124.05 164.92 123.94 165.07C123.83 165.22 123.7 165.33 123.53 165.42C123.37 165.5 123.2 165.55 123.01 165.55C122.83 165.55 122.65 165.51 122.49 165.43C122.15 165.28 122.28 165 122.27 164.77C122.27 163.81 122.27 162.84 122.27 161.88L122.09 161.88C122.09 162.81 122.09 163.74 122.09 164.67C122.09 165.02 122.25 165.5 121.58 165.46C121.14 165.43 120.78 165.55 120.66 164.84C120.48 163.76 120.49 162.69 120.68 161.62ZM122.06 190.44C122.03 191 121.88 191.52 121.11 191.49C120.34 191.45 120.53 190.87 120.51 190.42C120.49 189.97 120.51 189.58 120.51 189.17C120.51 188.75 120.51 188.39 120.51 188.01C120.51 187.62 120.32 187 121.07 187.03C121.66 187.06 122.18 187.18 122.09 188.03C122 188.87 122.11 189.63 122.06 190.44ZM122.09 178.68C122.09 179.2 122.09 179.72 122.09 180.23C122.12 180.43 122.06 180.61 121.94 180.76C121.81 180.91 121.65 181 121.45 181.02C121.39 181.03 121.32 181.03 121.25 181.02C120.58 181.02 120.73 180.59 120.73 180.24C120.73 179.2 120.75 178.17 120.73 177.14C120.73 176.58 120.97 176.52 121.43 176.52C121.89 176.52 122.18 176.58 122.15 177.13C122.06 177.65 122.09 178.17 122.09 178.68ZM122.09 172.31C122.03 173.21 122.06 174.11 122.09 175.01C122.09 175.64 121.8 175.76 121.23 175.77C120.58 175.79 120.69 175.37 120.69 175.01C120.69 174.52 120.69 174.04 120.69 173.55C120.67 173.14 120.67 172.72 120.69 172.3C120.72 172.01 120.45 171.44 121.05 171.52C121.49 171.56 122.15 171.48 122.09 172.31ZM121.17 170.69C120.39 170.76 120.74 170.12 120.74 169.8C120.69 168.8 120.74 167.8 120.7 166.79C120.7 166.28 120.93 166.21 121.35 166.23C121.77 166.25 122.15 166.16 122.11 166.79C122.06 167.33 122.11 167.88 122.11 168.43C122.07 168.88 122.07 169.33 122.11 169.78C122.21 170.57 121.66 170.64 121.17 170.69ZM121.07 181.75C121.68 181.75 121.83 181.93 121.93 182.54C122.14 183.6 122.01 184.66 122.07 185.71C122.07 186.05 122 186.3 121.6 186.24C121.26 186.18 120.82 186.47 120.64 185.87C120.43 185.17 120.56 184.46 120.5 183.87C120.5 183.37 120.5 182.99 120.5 182.59C120.5 182.19 120.34 181.75 121.07 181.75ZM120.51 195.79L120.51 194.34C120.51 193.95 120.51 193.57 120.51 193.19C120.51 192.65 120.43 192.23 121.26 192.21C122.08 192.2 122.12 192.6 122.09 193.2C122.04 194.1 122.06 194.98 121.93 195.88C121.84 196.57 121.53 196.51 121.07 196.54C120.41 196.58 120.5 196.17 120.51 195.79ZM123.57 208.57C122.83 208.81 122.71 209.34 122.71 210.06C122.71 211.14 122.33 212.46 122.66 213.25C123.18 214.49 122.89 215.63 123.07 216.79C123.07 216.92 123.07 217.05 123.07 217.18C123.11 217.76 122.78 217.86 122.28 217.89C121.67 217.92 121.67 217.59 121.69 217.17C121.71 216.75 121.69 216.26 121.69 215.81C121.81 214.35 121.69 212.89 121.69 211.43C121.69 211.12 121.91 210.57 121.15 210.84C120.83 210.95 120.72 210.56 120.72 210.24C120.75 209.69 120.75 209.15 120.72 208.6C120.64 207.89 120.97 207.57 121.58 207.8C122.2 208.03 122.75 207.83 123.31 207.8C123.61 207.71 123.83 207.8 123.99 208.06C124.1 208.38 123.82 208.49 123.57 208.57ZM122.08 204.84C122.08 205.29 122.08 205.75 122.08 206.2C122.08 206.65 122.08 207.05 121.39 207.05C120.7 207.05 120.68 206.74 120.69 206.23C120.72 205.26 120.73 204.29 120.69 203.32C120.66 202.71 121.02 202.75 121.43 202.74C121.84 202.74 122.12 202.79 122.08 203.31C122.05 203.83 122.08 204.33 122.08 204.84ZM124.21 206.27C124.18 207.03 123.62 207 123.04 207.02C122.31 207.02 122.47 206.57 122.46 206.17C122.45 205.76 122.46 205.26 122.46 204.81L122.46 203.45C122.46 202.99 122.4 202.51 123.1 202.52C123.7 202.52 124.16 202.76 124.2 203.35C124.25 204.34 124.25 205.31 124.21 206.27ZM126.19 214.14C126.19 215.26 126.19 216.37 126.19 217.49C126.19 217.69 126.19 217.88 125.88 217.87C125.61 217.91 125.46 217.8 125.42 217.52C125.42 217.04 125.42 216.52 125.42 215.8C125.42 215.37 125.31 214.7 125.6 214.06C125.64 213.88 125.76 213.79 125.94 213.81C126.12 213.81 126.21 213.9 126.2 214.08C126.2 214.1 126.2 214.12 126.19 214.14ZM126.39 204.81C126.39 205.16 126.39 205.52 126.39 205.87C126.39 206.51 126.48 207.05 125.49 207.04C124.58 207.04 124.4 206.61 124.42 205.88C124.44 205.14 124.45 204.27 124.42 203.47C124.39 203.27 124.43 203.08 124.55 202.92C124.67 202.75 124.83 202.65 125.03 202.61C125.12 202.6 125.2 202.6 125.29 202.61C125.72 202.67 126.57 202.5 126.4 203.47C126.36 203.92 126.36 204.36 126.39 204.81ZM126.39 200.32C126.41 200.42 126.41 200.52 126.39 200.62C126.22 201 126.82 201.77 125.86 201.76C125.27 201.76 124.44 202.04 124.33 201.13C124.23 201.73 123.76 201.78 123.17 201.78C120.71 201.78 120.71 201.78 120.71 199.32C120.71 198.89 120.74 198.46 120.71 198.06C120.66 197.49 120.81 197.27 121.45 197.27C122.08 197.28 122.12 197.57 122.1 198.05C122.06 198.73 122.12 199.41 122.28 200.07C122.28 199.46 122.28 198.85 122.28 198.24C122.28 197.62 122.51 197.23 123.26 197.28C124.26 197.35 125.57 196.97 126.19 197.46C126.81 197.95 126.31 199.34 126.39 200.32ZM126.58 178.86C126.61 178.51 126.61 178.15 126.58 177.8C126.43 176.87 126.84 176.67 127.7 176.7C128.37 176.7 128.61 176.87 128.56 177.56C128.49 178.46 128.49 179.36 128.56 180.26C128.64 181.12 128.1 181.01 127.59 180.99C127.08 180.98 126.47 181.2 126.57 180.3C126.6 179.82 126.6 179.34 126.58 178.86ZM126.58 189.22L126.58 188.45C126.58 187.21 126.96 186.94 128.2 187.21C128.59 187.29 128.54 187.52 128.54 187.77C128.54 188.7 128.54 189.64 128.54 190.58C128.54 191.51 127.89 191.25 127.38 191.3C126.86 191.34 126.51 191.23 126.56 190.58C126.59 190.13 126.6 189.68 126.58 189.22ZM128.55 194.37C128.55 194.73 128.55 195.08 128.55 195.43C128.55 196.54 128.3 196.72 127.17 196.52C126.9 196.5 126.77 196.36 126.77 196.1C126.63 195.01 126.56 193.93 126.58 192.83C126.58 191.88 127.26 192.29 127.67 192.25C128.09 192.22 128.64 192.01 128.56 192.82C128.53 193.34 128.53 193.85 128.55 194.37ZM126.57 200.94C126.62 199.94 126.62 198.93 126.57 197.93C126.51 196.99 127.18 197.33 127.62 197.29C128.07 197.26 128.65 197.13 128.55 197.96C128.52 198.51 128.52 199.06 128.55 199.61C128.53 199.96 128.53 200.32 128.55 200.67C128.69 201.56 128.34 201.83 127.45 201.78C126.79 201.77 126.52 201.65 126.57 200.94ZM126.57 205.9C126.6 205.04 126.59 204.18 126.57 203.29C126.54 202.39 127.21 202.77 127.61 202.74C128 202.72 128.59 202.48 128.54 203.29C128.51 203.8 128.54 204.32 128.54 204.84C128.54 205.19 128.54 205.54 128.54 205.9C128.54 206.5 128.69 207.08 127.68 207.04C126.79 207.01 126.54 206.68 126.57 205.9ZM128.14 217.34C128.14 217.79 127.99 218.07 127.47 218.07C126.94 218.07 126.74 217.78 126.76 217.27C126.78 216.76 126.76 216.3 126.76 215.82C126.76 215.33 126.76 214.78 126.76 214.26C126.76 213.88 126.76 213.55 127.3 213.58C127.76 213.6 128.16 213.63 128.16 214.24C128.14 215.28 128.14 216.31 128.14 217.34ZM127.65 211.29C128.2 211.29 128.14 211.75 128.14 212.15C128.14 212.54 128.19 213.15 127.62 213.19C126.99 213.23 127.19 212.62 127.15 212.26C127.2 211.86 127.01 211.3 127.65 211.29ZM128.27 208.71C127.84 208.53 127.11 208.6 127.03 207.98C126.99 207.64 127.51 207.87 127.78 207.78C128.08 207.89 128.64 207.56 128.64 208.18C128.65 208.34 128.61 208.86 128.27 208.71ZM128.52 185.6C128.42 186.44 127.61 186.07 127.12 186.23C126.64 186.38 126.55 186.02 126.57 185.61C126.59 185.09 126.57 184.57 126.57 184.06L126.57 182.99C126.57 181.7 126.57 181.7 127.92 181.77C128.36 181.77 128.45 181.93 128.56 182.35C128.89 183.46 128.63 184.53 128.52 185.6ZM128.54 158.6C128.54 158.56 128.54 158.52 128.54 158.48C128.54 158.25 128.63 158.04 128.79 157.88C128.96 157.71 129.17 157.62 129.41 157.62L129.48 157.62C129.91 157.62 130.46 157.89 130.3 158.48C130.27 159.11 130.19 159.56 129.48 159.5C129.23 159.5 129 159.42 128.82 159.24C128.63 159.06 128.54 158.85 128.54 158.6ZM128.86 185.21L128.95 183.87C128.97 183.54 128.95 183.22 128.92 182.9C128.76 181.95 129.14 181.68 130.08 181.75C130.71 181.8 130.94 181.96 130.9 182.61C130.86 183.51 130.9 184.41 130.9 185.32C130.9 186.09 130.47 186.3 129.77 186.27C129.07 186.24 128.82 185.84 128.86 185.21ZM129.79 196.53C129.36 196.53 128.84 196.67 128.93 195.91C128.98 195.4 128.93 194.88 128.93 194.36C128.96 194 128.96 193.65 128.93 193.29C128.79 192.43 129.12 192.15 129.98 192.23C130.5 192.28 130.75 192.35 130.72 192.93C130.67 193.93 130.67 194.94 130.72 195.93C130.74 196.71 130.21 196.52 129.79 196.53ZM130.03 191.47C129.6 191.33 128.86 191.56 128.91 190.67C128.96 189.77 128.91 188.87 128.91 187.97C128.91 187.54 128.66 186.95 129.53 187.01C130.23 187.06 130.82 187.17 130.86 188.02C130.86 188.4 130.86 188.79 130.86 189.25C130.86 189.8 130.81 190.34 130.72 190.88C130.62 191.36 130.48 191.62 130.03 191.47ZM130.08 197.28C130.65 197.34 130.91 197.49 130.89 198.08C130.87 199.07 130.86 200.07 130.89 201.08C130.92 202.09 130.24 201.74 129.74 201.79C129.25 201.83 128.83 201.83 128.91 201.12C128.94 200.57 128.94 200.02 128.91 199.48C128.94 199.12 128.94 198.77 128.91 198.42C128.74 197.43 129.18 197.2 130.08 197.28ZM128.92 204.87C128.95 204.51 128.95 204.16 128.92 203.8C128.77 202.9 129.17 202.67 130.03 202.71C130.69 202.74 130.9 202.88 130.92 203.57C130.95 204.54 130.68 205.47 130.69 206.43C130.69 207.2 130.06 206.96 129.61 207.02C129.17 207.07 128.88 206.96 128.92 206.4C128.96 205.85 128.92 205.38 128.92 204.87ZM130.35 210.48C129.75 211.08 129.63 210.45 129.4 210.12C129.05 209.53 128.89 208.9 128.93 208.22C128.93 207.82 130.32 207.48 130.58 207.9C130.84 208.33 131.01 208 131.16 207.94C132.27 207.47 132.69 207.73 132.66 208.91C132.66 209.66 132.66 210.4 132.66 211.14C132.66 211.77 132.91 212.54 131.88 212.68C131.64 212.72 131.7 212.99 131.71 213.17C131.73 213.35 131.82 213.43 132 213.41C132.02 213.42 132.04 213.42 132.07 213.41C132.27 213.41 132.54 213.54 132.64 213.21C132.68 213.07 132.6 212.88 132.86 212.81C132.86 214.3 132.82 215.79 132.86 217.28C132.89 218.03 132.43 217.95 132 217.89C131.57 217.82 130.86 218.27 130.89 217.31C130.91 216.7 131.1 215.98 130.85 215.49C130.46 214.72 131.03 214.24 131.19 213.67C131.43 212.77 131.28 211.21 130.65 210.61C130.56 210.52 130.48 210.35 130.35 210.48ZM132.83 223.65C132.94 223.96 132.72 224.11 132.39 224.08C132.14 224.08 131.87 224.08 131.61 224.08C131.35 224.08 130.94 224.11 130.82 223.84C130.69 223.57 131.05 223.41 131.25 223.26C131.55 223.01 131.64 222.69 131.54 222.32C131.35 221.25 131.79 220.06 130.78 219.15C130.52 218.91 130.98 218.86 131.12 218.72C131.5 219.23 131.83 218.72 132.17 218.68C132.33 218.64 132.47 218.67 132.61 218.75C132.74 218.84 132.82 218.96 132.86 219.11C132.87 219.16 132.87 219.22 132.86 219.28C132.86 219.8 132.86 220.31 132.86 220.99C133.15 221.77 132.5 222.71 132.83 223.65ZM143.11 138.48C143 138.75 143.06 139.22 142.64 139.23C142.23 139.27 141.96 139.09 141.84 138.7C141.83 138.57 141.77 138.47 141.66 138.39C141.56 138.31 141.44 138.28 141.31 138.3C141.26 138.31 141.21 138.32 141.17 138.34C140.15 138.84 140.28 138.15 140.28 137.56C140.28 136.96 140.33 136.27 140.28 135.62C140.2 134.84 140.41 134.56 141.26 134.59C143.23 134.65 143.23 134.59 143.23 136.66C143.15 137.19 143.36 137.85 143.11 138.48ZM155.92 187.59C155.46 184.15 154.96 180.72 154.42 177.29C154.3 176.54 154.59 176.43 155.18 176.53C155.37 176.56 155.55 176.66 155.74 176.7C156.6 176.91 157.41 176.87 158.12 176.01L157.44 175.94C156.4 175.84 156.2 175.51 156.61 174.61C156.67 174.46 156.75 174.32 156.83 174.18C156.99 174 156.98 173.82 156.8 173.66C156.65 173.57 156.5 173.59 156.37 173.71C155.77 174.25 155.38 174.06 155.03 173.39C154.81 173.11 154.52 172.98 154.16 173.02C153.96 173.02 153.78 172.95 153.64 172.81C153.49 172.67 153.41 172.49 153.41 172.29C153.05 170.73 153.07 170.69 154.73 170.69L158.44 170.69C160.03 170.69 161.01 171.64 161.04 173.22C161.17 178.07 160.83 182.91 160.85 187.75C160.85 188.18 160.72 188.38 160.25 188.37C159.07 188.34 157.9 188.34 156.72 188.37C156.12 188.4 156 188.15 155.92 187.59ZM154.49 175.18C154.96 175.07 155.4 175.25 155.97 175.75C155.25 175.75 154.79 175.99 154.41 175.58C154.28 175.41 154.31 175.28 154.49 175.18ZM156.55 192.31C156.43 191.69 156.89 191.66 157.36 191.67C157.82 191.68 158.33 191.67 158.82 191.67C159.3 191.67 159.79 191.67 160.28 191.67C160.77 191.67 161.08 191.85 161.04 192.4C160.99 192.88 160.89 193.26 160.25 193.26C159.28 193.23 158.3 193.21 157.33 193.26C156.57 193.29 156.63 192.71 156.55 192.31ZM162.43 211.71C161.82 213.49 161.29 215.3 160.7 217.09L160.44 217.09C160.04 214.62 159.65 212.15 159.25 209.68C158.74 206.48 158.23 203.29 157.73 200.09C157.56 199.02 157.44 197.94 157.3 196.87C157.23 196.36 157.37 196.09 157.97 196.14C158.59 196.18 159.21 196.18 159.83 196.14C160.63 196.08 160.93 196.49 160.82 197.19C160.36 200.09 160.86 203.03 160.48 205.95C160.34 206.79 160.41 207.61 160.7 208.41C160.98 209.22 161.44 209.9 162.08 210.48C162.28 210.61 162.41 210.8 162.48 211.03C162.55 211.26 162.53 211.49 162.43 211.71ZM167.29 196.87C166.37 199.98 165.44 203.09 164.48 206.31C164.18 206.11 164.08 205.84 164.17 205.5C164.17 202.7 164.17 199.89 164.15 197.09C164.15 196.37 164.37 196.09 165.1 196.15C165.62 196.2 166.14 196.2 166.66 196.15C167.27 196.07 167.43 196.38 167.29 196.87ZM168.23 193C167.01 193.49 165.75 193.29 164.53 193C164.17 192.92 164.4 192.37 164.37 192.04C164.34 191.7 164.59 191.7 164.83 191.7L166.56 191.7C166.99 191.7 167.47 191.7 167.92 191.7C168.23 191.7 168.71 191.58 168.75 191.96C168.81 192.43 168.65 192.79 168.23 193ZM202.54 203.24C203.23 203.14 203.81 203.35 204.27 203.87C204.47 204.06 204.6 204.29 204.66 204.57C204.71 204.84 204.68 205.11 204.56 205.36C204.27 206.03 203.82 206.54 203.18 206.9C202.68 207.17 202.37 206.97 202.37 206.51C202.37 205.89 202 205.33 202.14 204.79L202.14 204.59C202.15 204.07 202.16 203.32 202.54 203.24ZM212.95 206.19C212.8 206.53 212.52 206.43 212.3 206.44C211.62 206.45 210.94 206.51 210.27 206.61C209.76 206.69 209.28 206.85 208.83 207.09C208.37 207.33 207.97 207.64 207.62 208.02C207.28 208.4 207 208.83 206.8 209.3C206.6 209.78 206.49 210.27 206.46 210.78C206.03 215.1 206.37 219.43 206.29 223.74C206.29 224.49 206.12 224.73 205.33 224.71C202.95 224.67 202.98 224.71 202.92 222.34C202.89 221.18 202.64 220.04 202.8 218.59C202.37 216.38 202.76 213.87 202.37 211.36C202.28 210.81 202.6 210.64 203.04 210.52C203.7 210.34 204.32 210.07 204.9 209.7C205.47 209.34 205.98 208.9 206.43 208.38C206.87 207.87 207.23 207.3 207.51 206.68C207.78 206.06 207.96 205.41 208.04 204.74C208.09 204.15 208.31 203.88 208.95 203.91C209.81 203.95 210.64 203.91 211.49 203.91C211.75 203.93 212 204.01 212.22 204.15C212.45 204.28 212.64 204.46 212.78 204.68C212.93 204.91 213.01 205.15 213.05 205.41C213.08 205.67 213.04 205.94 212.95 206.19ZM217.44 155.78C217.39 155.78 217.34 155.78 217.28 155.78C216.85 155.74 216.85 155.4 216.85 155.07C216.85 154.73 216.92 154.55 217.18 154.64C217.7 154.67 217.85 154.9 217.84 155.28C217.85 155.56 217.72 155.74 217.44 155.78ZM233.1 193.59C233.1 193.91 233.01 194.22 232.65 194.19C232.17 194.15 232.36 193.72 232.3 193.45C232.3 193.16 232.25 192.74 232.62 192.78C233 192.82 233.13 193.21 233.1 193.59ZM237.86 185.78C238.12 185.18 237.99 184.58 237.99 183.98C237.99 183.46 238.17 183.29 238.67 183.34C238.96 183.37 239.25 183.37 239.53 183.34C240.54 183.25 241.31 183.42 241.26 184.67C241.29 184.59 241.31 184.5 241.31 184.41C241.24 183.73 241.28 183.31 242.23 183.31C243.17 183.31 243.48 183.67 243.47 184.51C243.49 184.67 243.49 184.83 243.47 184.99C243.39 185.42 243.75 186.08 243.25 186.19C242.65 186.34 241.92 186.51 241.33 186.05C240.97 185.77 241.16 186.29 240.9 186.28C240.06 186.24 239.24 186.55 238.38 186.47C237.94 186.38 237.68 186.18 237.86 185.78ZM242.44 191.08C243.59 191.15 243.51 191.85 243.49 192.46C243.49 193.75 242.73 194.22 241.6 193.83C241.35 193.75 241.26 193.59 241.33 193.34C241.33 193.33 241.33 193.31 241.33 193.3C241.37 193.02 241.46 192.75 241.51 192.47C241.61 191.85 241.13 191 242.44 191.08ZM242.61 190.14C242.18 190.18 241.32 189.06 241.32 188.57C241.29 188.17 241.41 187.82 241.68 187.52C241.94 187.22 242.28 187.06 242.68 187.04L242.88 187.04C243.68 187.04 243.43 187.67 243.5 188.24C242.82 188.61 244.11 189.99 242.61 190.14ZM240.02 187.02C240.85 187.02 241.26 187.24 241.12 188.11C241.12 188.24 241.12 188.36 241.12 188.49C241.12 190.12 241.43 190.17 239.44 190.15C239.18 190.14 238.92 190.14 238.66 190.15C237.96 190.22 237.8 189.9 237.8 189.25C237.76 187.11 237.85 187.05 240.02 187.02ZM241.12 192.6C241.12 194.03 241.12 194.03 239.39 194.03C237.77 194.03 237.77 194.03 237.77 192.42C237.77 190.91 237.77 190.91 239.29 190.92C241.38 190.91 241.1 190.64 241.12 192.6ZM237.59 197.16C237.6 197 237.6 196.84 237.59 196.67C237.59 194.85 237.66 194.79 239.57 194.79C240 194.95 240.78 194.42 241.02 195.34C241.02 195.39 241.18 195.57 241.29 195.34C241.72 194.53 242.44 195.15 243.02 194.99C243.21 194.94 243.27 195.13 243.3 195.3C243.35 195.65 243.46 195.99 243.48 196.34C243.51 196.85 243.65 197.46 243.43 197.86C243.1 198.47 242.52 197.83 242.03 197.86C240.86 198 239.7 198.08 238.53 198.1C237.79 198.1 237.5 197.86 237.59 197.16ZM241.79 199C243 198.64 243.44 198.89 243.47 200.14C243.47 200.36 243.47 200.59 243.47 200.81C243.47 201.48 243.71 202.29 242.49 202.2C241.43 202.11 241.31 202.03 241.31 200.71L241.31 200.35C241.57 199.97 240.84 199.28 241.79 199ZM241.12 201.65C241.12 201.79 241.08 201.92 240.98 202.02C240.88 202.13 240.76 202.18 240.61 202.19L240.47 202.19C240.04 202.19 239.63 202.19 239.21 202.19C237.59 202.19 237.59 202.19 237.59 200.58C237.59 200.29 237.59 200 237.59 199.72C237.59 199.15 237.83 198.8 238.45 198.89C238.58 198.89 238.71 198.89 238.84 198.89C239.5 198.98 240.45 198.54 240.75 199.15C241.08 199.96 241.22 200.78 241.12 201.65ZM241.01 205.44C240.95 205.65 240.82 205.82 240.64 205.94C240.45 206.06 240.25 206.1 240.03 206.07C239.83 206.05 239.64 206.05 239.44 206.07C237.58 206.07 237.62 206.07 237.57 204.21C237.57 203.35 237.85 203.03 238.69 203.14C238.91 203.16 239.14 203.16 239.37 203.14C239.46 203.14 239.56 203.14 239.66 203.14C240.12 203.22 240.78 202.89 241 203.38C241.27 204.06 241.27 204.76 241.01 205.44ZM242.64 206.07C241.61 206.02 241.31 205.68 241.31 204.35C241.16 203.49 241.62 203.13 242.49 203.14C243.37 203.14 243.74 203.48 243.64 204.48C243.59 205.1 243.94 206.14 242.64 206.07ZM245.82 184.6C245.82 183.32 245.82 183.32 247.28 183.32C249.41 183.32 249.08 183.05 249.17 185.03C249.21 185.96 249.01 186.44 247.99 186.24C247.82 186.22 247.66 186.22 247.5 186.24C245.82 186.24 245.81 186.24 245.82 184.6ZM246.15 190.98C246.95 190.79 247.75 190.79 248.56 190.98C249.34 191.18 248.79 191.99 248.95 192.43C248.95 194.17 248.84 194.26 247.12 193.93C247.06 193.93 247 193.88 246.94 193.87C245.71 193.64 245.71 193.64 245.96 192.4L245.99 192.31C246.14 191.86 245.7 191.1 246.15 190.98ZM245.86 196.13C246.13 194.78 246.13 194.78 247.58 194.78C249.16 194.78 249.16 194.78 249.16 196.46C249.16 198.13 249.16 198.09 247.55 198.09L247.45 198.09C246.1 198.08 245.56 197.46 245.86 196.13ZM247.58 206.24C246.03 206.24 246.03 206.24 246.03 204.64C246.03 203.13 246.03 203.13 247.56 203.13C249.17 203.13 249.17 203.13 249.17 204.66C249.17 206.2 249.17 206.24 247.58 206.24ZM247.3 214.39C246.44 214.42 246.11 214.14 246.22 213.3C246.24 213.08 246.24 212.85 246.22 212.63C246.22 211.06 246.22 211.06 247.71 211.08C248.95 211.1 249.16 211.31 249.17 212.54C249.16 214.4 249.17 214.35 247.3 214.39ZM245.84 200.51C245.84 198.84 245.84 198.84 247.6 198.84C249.17 198.84 249.17 198.84 249.17 200.4C249.17 201.96 249.17 201.96 247.59 201.95C245.69 201.95 245.84 202.2 245.84 200.51ZM247.8 207.22C249.14 207.12 249.17 207.22 249.17 209.1C249.17 210.3 249.17 210.3 247.39 210.3C246.06 210.3 246.09 210.24 246.01 208.16C245.93 206.56 247.13 207.27 247.8 207.22ZM246.53 215.29C247.05 214.83 248.05 215.05 248.8 215.21C249.44 215.33 249.09 216.02 249.17 216.46C249.18 216.56 249.18 216.65 249.17 216.75C249.17 218.26 249.17 218.28 247.53 218.25C247.1 218.25 246.38 218.5 246.33 217.82C246.25 216.99 245.82 215.9 246.53 215.29ZM247.63 222.16C246.69 222.2 246.21 222 246.42 220.98C246.43 220.92 246.43 220.86 246.42 220.79C246.42 218.95 246.76 218.69 248.63 219.02C248.78 219.02 248.9 219.07 249.01 219.18C249.11 219.28 249.16 219.4 249.17 219.55C249.17 219.9 249.17 220.29 249.17 220.64C249.17 222.14 249.17 222.08 247.63 222.16ZM248.1 224.47C247.91 224.46 247.71 224.46 247.52 224.47C246.46 224.47 246.08 224 246.45 223.03C246.7 222.36 247.36 222.9 247.81 222.67C248.24 222.96 249.17 222.17 249.2 223.41C249.2 224.26 248.96 224.6 248.1 224.47ZM248.97 189.73C248.63 190.16 247.99 189.81 247.57 189.91C247.28 189.91 246.99 189.91 246.7 189.91C246.22 189.97 245.95 189.81 245.99 189.29C245.99 189.23 245.99 189.17 245.99 189.1C245.71 187.07 245.96 186.8 247.99 187C248.46 187.05 249.03 187.11 249.12 187.67C249.2 188.37 249.42 189.14 248.97 189.73ZM256.8 188.96C256.89 189.67 256.69 190.06 255.87 189.93C255.61 189.92 255.36 189.96 255.12 190.03C253.96 190.28 253.46 189.9 253.46 188.78C253.46 187.19 253.46 187.19 255.13 187.19C255.36 187.21 255.58 187.21 255.81 187.19C256.6 187.09 256.9 187.42 256.8 188.19C256.77 188.44 256.77 188.7 256.8 188.96ZM255.16 201.95C253.6 201.95 253.47 201.83 253.49 200.45C253.5 199.06 253.92 198.67 255.32 198.65C256.72 198.62 256.8 198.7 256.8 200.83C256.8 201.97 256.81 201.95 255.16 201.95ZM256.8 204.41C256.8 206.03 256.8 206.03 255.1 206.03C253.41 206.03 253.47 206.03 253.47 204.62C253.47 203.05 253.79 202.77 255.43 202.91C256.77 203.03 256.8 203.08 256.8 204.41ZM255.12 183.32C256.98 183.32 256.79 183.13 256.8 184.97C256.8 186.24 256.8 186.24 255.51 186.24L255.02 186.24C253.44 186.24 253.44 186.24 253.44 184.76C253.47 183.09 253.27 183.33 255.12 183.32ZM253.83 207.14C254.53 206.79 255.56 207.02 256.42 207C256.79 207 256.85 207.21 256.85 207.5C256.85 207.89 256.85 208.27 256.85 208.66C256.83 210.56 257.11 210.28 255.2 210.3C255 210.3 254.81 210.3 254.62 210.3C253.85 210.35 253.15 210.35 253.65 209.26C253.66 209.23 253.66 209.2 253.65 209.17C253.34 208.45 253.25 207.43 253.83 207.14ZM255.07 218.26C253.48 218.26 253.49 218.26 253.49 216.48C253.49 214.86 253.46 215.19 255.5 215.15C256.82 215.15 256.82 215.15 256.82 216.76C256.8 218.27 256.83 218.26 255.07 218.26ZM256.8 220.72C256.8 222.17 256.8 222.17 255.07 222.17C253.44 222.17 253.44 222.17 253.44 220.33C253.44 218.76 253.36 219.08 255.5 219.04C256.8 219.04 256.8 219.06 256.8 220.72ZM249.74 185.22C249.75 185.15 249.75 185.09 249.74 185.02C249.74 183.33 249.74 183.33 251.4 183.33C253.06 183.33 253.08 183.33 253.08 184.62C253.08 186.3 252.48 186.77 250.73 186.44C250.04 186.3 249.52 186.08 249.74 185.22ZM249.7 188.09C249.81 187.12 250.25 187 251.02 187.02C253.4 187.07 253.01 186.7 253.1 188.98C253.13 189.84 252.84 190.07 252.06 189.95C251.8 189.93 251.54 189.93 251.28 189.95C249.4 189.93 249.5 189.95 249.7 188.09ZM249.61 192.48C249.71 191.99 249.61 191.25 249.89 191.04C250.38 190.67 251.14 190.92 251.78 190.91C252.26 190.91 252.89 190.94 253.01 191.44C253.18 192.18 253.33 193.08 252.95 193.7C252.64 194.2 251.77 194.04 251.34 194.02L250.93 194.02C249.46 194.01 249.33 193.84 249.61 192.48ZM249.75 196.34C249.75 194.79 249.75 194.79 251.34 194.79L251.44 194.79C253.08 194.79 253.09 194.79 253.08 196.34C253.08 198.34 253.32 198.09 251.31 198.1C249.5 198.09 249.76 198.26 249.75 196.34ZM251.37 202.17C249.75 202.17 249.75 202.17 249.75 200.55C249.75 199 249.75 199 251.27 198.87C253.08 198.72 253.08 198.72 253.08 200.5C253.08 202.17 253.1 202.17 251.37 202.17ZM249.87 203.35C250.03 202.98 250.69 202.92 251.17 202.95C251.65 202.98 252.16 203.21 252.69 203.15C252.99 203.11 253.07 203.32 253.07 203.58C253.07 203.93 253.07 204.29 253.07 204.64C253.06 204.8 253.06 204.96 253.07 205.12C253.18 205.86 252.91 206.18 252.13 206.07C251.77 206.08 251.42 206.08 251.06 206.04C250.63 205.91 249.96 206.55 249.8 205.91C249.56 205.05 249.58 204.2 249.87 203.35ZM251.42 207.02C253.08 207.05 253.08 207.05 253.08 208.66C253.08 210.27 253.08 210.33 251.31 210.33C250.85 210.26 250.22 210.53 249.77 210.21C249.19 209.78 249.8 209.21 249.77 208.69C249.69 206.99 249.76 207 251.42 207.02ZM249.78 215.46C249.87 215.25 250.03 215.16 250.25 215.17C250.41 215.17 250.57 215.17 250.74 215.17C253.49 215.23 253.01 214.71 253.09 217.51C253.09 218.16 252.89 218.37 252.27 218.29C251.98 218.28 251.7 218.28 251.41 218.29L251.31 218.29C250.8 218.18 250.05 218.61 249.82 218.06C249.4 217.19 249.39 216.33 249.78 215.46ZM252.96 214.11C252.76 214.77 251.9 214.21 251.5 214.4C249.77 214.4 249.77 214.4 249.77 212.77C249.77 211.14 250.1 210.78 251.75 211.17C252.18 211.27 252.94 211.01 253.04 211.52C253.22 212.39 253.18 213.25 252.96 214.11ZM249.82 219.26C250.09 218.77 250.9 219.17 251.37 219.07C253.31 219.07 253.31 219.07 252.92 220.92C252.89 221.12 252.9 221.31 252.95 221.49C253.07 222 252.86 222.2 252.36 222.19C251.97 222.22 251.58 222.22 251.2 222.19C250.71 222.08 250.05 222.57 249.74 221.88C249.32 220.98 249.35 220.13 249.82 219.26ZM256.81 223.98C256.78 224.39 256.67 224.6 256.25 224.53C255.3 224.41 254.34 224.35 253.38 224.36C252.4 224.33 251.43 224.39 250.46 224.53C249.63 224.66 249.5 224.26 249.53 223.56C249.56 222.99 249.75 222.74 250.35 222.77C250.94 222.8 251.58 222.77 252.2 222.77C252.68 222.77 253.09 222.89 253.18 223.53C253.26 223.31 253.41 223.14 253.62 223.03C253.83 222.92 254.05 222.89 254.28 222.95C254.8 223.01 255.31 223.01 255.83 222.95C256.7 222.83 256.89 223.21 256.81 223.98ZM256.76 213.82C256.76 214.36 256.2 214.22 255.83 214.25C255.57 214.25 255.31 214.25 255.05 214.25C253.47 214.25 253.47 214.25 253.47 212.68C253.47 211.44 254.11 210.92 255.41 211.15C255.71 211.26 256.03 211.32 256.35 211.33C256.45 211.31 256.54 211.32 256.63 211.37C256.97 212.11 256.8 212.95 256.75 213.77L256.76 213.82ZM256.87 197.79C256.48 198.19 255.76 197.87 255.26 197.94C253.5 197.94 253.5 197.94 253.65 196.32C253.79 194.82 253.79 194.82 255.31 194.82C256.84 194.83 256.8 194.82 256.8 196.24L256.8 196.34C256.84 196.84 257.1 197.55 256.87 197.79ZM256.73 193.65C256.46 194.15 255.73 193.75 255.29 193.86L254.53 193.86C253.46 193.86 253.37 193.76 253.62 192.68C253.73 192.18 253.39 191.47 253.82 191.24C254.26 191.01 254.96 191.1 255.55 191.15C255.98 191.19 256.52 190.84 256.82 191.44C257.16 192.18 257.13 192.9 256.72 193.61L256.73 193.65Z" fill="#010B2D" fill-opacity="1.000000" fill-rule="nonzero"/>
		<path id="path" d="M93.76 39.74C92.09 38.24 90.51 36.66 89.01 34.99C80.07 40.25 71.69 46.28 63.89 53.1C9.15 100.96 -6.37 176.63 20.02 240.11C25.77 239.97 31.52 239.68 37.18 238.73C10.49 180.53 23.88 109.62 74.64 65.25C82.92 58.03 91.89 51.79 101.55 46.52C98.97 44.24 96.31 42.05 93.76 39.74Z" fill="#010B2D" fill-opacity="1.000000" fill-rule="evenodd"/>
		<path id="path" d="M298.45 68.26C287.28 55.6 274.46 44.9 259.99 36.14C259.47 36.74 258.94 37.34 258.4 37.93C255.17 41.46 251.69 44.75 248.14 47.97C262.57 56.18 275.26 66.5 286.22 78.93C327.01 125.03 333.91 189.2 308.89 241.33C310.69 241.91 312.53 242.26 314.41 242.4C318.19 242.78 321.95 243.26 325.72 243.73C350.9 186.81 342.48 118.03 298.45 68.26Z" fill="#010B2D" fill-opacity="1.000000" fill-rule="evenodd"/>
		<path id="path" d="M316.08 158.43L347.12 141.31C344.43 127.93 340.23 115.05 334.51 102.65L299.24 106.82L278.5 78.49L293.49 46.46C283.39 37.21 272.35 29.23 260.38 22.54L234.3 46.6L200.78 35.85L193.95 1.17C180.72 -0.37 167.48 -0.4 154.23 1.06L147.16 35.68L113.61 46.29L87.71 22.12C75.71 28.75 64.64 36.66 54.5 45.86L69.26 77.95L48.43 106.15L13.21 101.76C10.33 107.82 7.84 114.02 5.72 120.38C3.53 126.94 1.73 133.59 0.31 140.35L31.32 157.66L31.14 192.68L0.03 209.68C2.68 223.07 6.86 235.98 12.56 248.4L47.84 244.32L68.43 272.71L53.34 304.69C63.42 313.98 74.44 322 86.39 328.75L112.5 304.75L115.01 305.57C118.9 299.21 123.13 293.08 127.45 287.01C132.02 280.57 136.68 274.21 141.11 267.69C143.32 264.43 145.48 261.13 147.52 257.77C148.54 256.12 149.52 254.45 150.47 252.77C150.73 252.3 150.98 251.84 151.23 251.36C146.63 250.02 142.19 248.28 137.92 246.14C133.64 243.99 129.59 241.49 125.77 238.61C121.94 235.74 118.42 232.55 115.18 229.03C111.94 225.52 109.05 221.75 106.51 217.72L106.39 217.53C83.16 180.68 94.41 132.11 131.51 109.03C168.58 85.87 217.56 97.01 240.75 133.92C264.12 170.72 252.93 219.28 215.89 242.53C210.73 245.76 205.27 248.36 199.51 250.34C200.05 252.59 199.81 254.97 200.41 257.21C201.47 261.12 203.44 264.73 205.22 268.34C206.16 270.1 206.98 271.9 207.7 273.75C208.35 275.56 209 277.36 209.73 279.13C211.16 282.63 212.9 286.2 215.37 289.11C217.76 291.92 220.8 294.07 223.45 296.61C226.02 299.12 228.18 301.93 229.94 305.05C230.16 305.43 230.37 305.82 230.6 306.21L234.05 305.11L260.04 329.2C272.05 322.51 283.13 314.54 293.29 305.31L278.37 273.24L299.12 244.98L334.39 249.27C337.11 243.36 339.52 237.34 341.61 231.19C343.84 224.45 345.66 217.61 347.06 210.65L316.07 193.4L316.08 158.43Z" fill="#081951" fill-opacity="1.000000" fill-rule="evenodd"/>
		<path id="path" d="M173.83 88.32C125.05 88.32 85.37 127.74 85.37 176.2C85.37 214.94 110.74 247.89 145.87 259.57C146.7 258.37 147.53 257.18 148.36 255.97C114.33 245.24 89.59 213.52 89.59 176.2C89.59 130.05 127.39 92.49 173.86 92.49C220.33 92.49 258.12 130.04 258.12 176.2C258.12 214.13 232.59 246.24 197.7 256.47C198.82 257.6 199.98 258.69 201.14 259.79C236.62 248.35 262.34 215.2 262.34 176.19C262.3 127.74 222.61 88.32 173.83 88.32Z" fill="#FFFFFF" fill-opacity="1.000000" fill-rule="nonzero"/>
		<path id="path" d="M269.99 80.48C268.24 78.74 266.44 77.05 264.6 75.42C262.76 73.78 260.87 72.19 258.94 70.66C257.01 69.12 255.03 67.64 253.02 66.21C251.01 64.78 248.96 63.41 246.87 62.09C244.78 60.77 242.66 59.51 240.5 58.31C238.34 57.1 236.15 55.96 233.93 54.88C231.71 53.79 229.46 52.77 227.19 51.81C224.91 50.85 222.61 49.95 220.28 49.11C217.96 48.27 215.61 47.5 213.24 46.79C210.87 46.08 208.49 45.43 206.08 44.85C203.68 44.27 201.26 43.76 198.83 43.31C196.4 42.86 193.95 42.47 191.5 42.16C189.05 41.84 186.59 41.59 184.12 41.4C181.65 41.22 179.18 41.1 176.71 41.05C174.24 41 171.76 41.02 169.29 41.11C166.82 41.19 164.35 41.34 161.88 41.56C159.42 41.78 156.96 42.06 154.52 42.41C152.07 42.76 149.63 43.18 147.2 43.66C144.78 44.15 142.37 44.7 139.97 45.31C137.58 45.92 135.2 46.6 132.84 47.35C130.48 48.09 128.14 48.89 125.83 49.76C123.52 50.63 121.23 51.56 118.97 52.56C116.7 53.55 114.47 54.61 112.27 55.72C110.06 56.84 107.89 58.01 105.75 59.24C103.61 60.47 101.5 61.76 99.43 63.11C97.36 64.46 95.33 65.86 93.34 67.32C91.35 68.77 89.39 70.28 87.48 71.84C85.58 73.41 83.71 75.02 81.89 76.68C80.07 78.35 78.29 80.06 76.57 81.82C74.84 83.58 73.16 85.38 71.53 87.23C69.91 89.09 68.33 90.98 66.81 92.91C65.28 94.85 63.81 96.83 62.4 98.84C60.98 100.86 59.62 102.91 58.32 105C57.02 107.09 55.78 109.21 54.59 111.37C53.4 113.53 52.28 115.72 51.21 117.93C50.15 120.15 49.14 122.4 48.2 124.67C47.26 126.94 46.38 129.24 45.56 131.56C44.75 133.88 44 136.22 43.31 138.58C42.62 140.94 42 143.32 41.44 145.71C40.89 148.11 40.39 150.51 39.97 152.94C39.55 155.36 39.19 157.79 38.9 160.23C38.61 162.67 38.38 165.12 38.23 167.57C38.07 170.02 37.98 172.48 37.96 174.93C37.94 177.39 37.98 179.85 38.09 182.3C38.21 184.76 38.39 187.21 38.64 189.65C38.88 192.1 39.2 194.53 39.58 196.96C39.96 199.39 40.41 201.81 40.92 204.21C41.44 206.62 42.02 209 42.66 211.38C43.31 213.75 44.02 216.1 44.8 218.44C45.57 220.77 46.41 223.08 47.31 225.37C48.21 227.66 49.18 229.92 50.2 232.16C51.23 234.39 52.32 236.6 53.46 238.78C54.61 240.95 55.82 243.1 57.08 245.21C58.35 247.32 59.67 249.4 61.05 251.44C62.43 253.48 63.86 255.48 65.35 257.44C66.84 259.4 68.38 261.32 69.98 263.2C71.57 265.08 73.22 266.92 74.91 268.71C76.61 270.5 78.35 272.24 80.15 273.93C81.94 275.63 83.77 277.27 85.66 278.87C87.54 280.47 89.46 282.01 91.43 283.5C93.39 284.99 95.4 286.43 97.45 287.81C99.49 289.19 101.57 290.52 103.69 291.79C105.81 293.06 107.96 294.27 110.15 295.42C112.33 296.58 114.55 297.67 116.79 298.7L117.05 298.43C117.99 297.44 118.92 296.41 119.78 295.34C74.02 274.8 42.1 229.04 42.1 176.01C42.1 103.84 101.2 45.13 173.85 45.13C246.49 45.13 305.59 103.84 305.59 176.01C305.59 229.3 273.35 275.25 227.23 295.64C228.01 296.86 228.81 298.08 229.62 299.29C232.12 298.17 234.58 296.98 237.01 295.71C239.44 294.45 241.82 293.11 244.17 291.7C246.51 290.29 248.81 288.82 251.07 287.27C253.32 285.72 255.53 284.11 257.69 282.43C259.85 280.75 261.95 279.01 264 277.21C266.05 275.4 268.05 273.53 269.99 271.61C271.92 269.68 273.8 267.7 275.62 265.67C277.44 263.63 279.19 261.54 280.88 259.39C282.57 257.25 284.19 255.06 285.75 252.82C287.31 250.58 288.79 248.29 290.21 245.96C291.63 243.63 292.98 241.26 294.25 238.85C295.53 236.44 296.72 234 297.85 231.51C298.97 229.03 300.02 226.52 301 223.97C301.97 221.43 302.86 218.86 303.68 216.26C304.49 213.66 305.23 211.04 305.88 208.39C306.54 205.75 307.12 203.09 307.61 200.41C308.1 197.73 308.52 195.04 308.85 192.34C309.18 189.64 309.43 186.93 309.59 184.21C309.76 181.49 309.84 178.77 309.84 176.05C309.84 173.33 309.76 170.61 309.59 167.89C309.43 165.17 309.18 162.46 308.85 159.76C308.52 157.06 308.11 154.37 307.62 151.69C307.12 149.01 306.55 146.35 305.89 143.71C305.24 141.06 304.5 138.44 303.69 135.84C302.87 133.24 301.98 130.67 301.01 128.13C300.03 125.58 298.99 123.07 297.86 120.58C296.74 118.1 295.54 115.65 294.26 113.24C292.99 110.83 291.65 108.46 290.23 106.13C288.81 103.8 287.32 101.52 285.77 99.28C284.21 97.03 282.59 94.84 280.9 92.7C279.21 90.56 277.46 88.47 275.64 86.43C273.82 84.39 271.93 82.4 269.99 80.48Z" fill="#FFFFFF" fill-opacity="1.000000" fill-rule="nonzero"/>
		<path id="path" d="M110.85 340.31L99.38 340.31L173.4 232.31L247.54 340.49L236.06 340.49L244.02 352.11L269.33 352.11L173.4 212.14L77.47 352.08L102.77 352.08L110.85 340.31Z" fill="#010B2D" fill-opacity="1.000000" fill-rule="evenodd"/>
		<path id="ООО_Тех_Пром_Продукт" d="M101.28 267.87L110.38 255.93L113.38 258.18L104.26 270.13L101.28 267.87ZM110.43 246.54C110.06 246.24 109.65 246.01 109.2 245.87C108.74 245.72 108.27 245.67 107.79 245.71C107.32 245.75 106.86 245.88 106.44 246.1C106.01 246.32 105.64 246.61 105.34 246.97C105.26 247.06 105.2 247.14 105.13 247.23L91.41 265.24C91.1 265.6 90.88 266.02 90.74 266.47C90.6 266.93 90.56 267.39 90.6 267.87C90.65 268.34 90.78 268.79 91.01 269.21C91.24 269.63 91.53 269.99 91.9 270.29C91.99 270.37 92.08 270.43 92.17 270.5L104.19 279.54C104.56 279.85 104.97 280.07 105.43 280.22C105.89 280.36 106.36 280.41 106.83 280.37C107.31 280.33 107.76 280.2 108.19 279.98C108.62 279.76 108.98 279.47 109.29 279.11C109.37 279.02 109.43 278.93 109.5 278.84L123.22 260.85C123.52 260.48 123.75 260.07 123.89 259.61C124.03 259.15 124.07 258.69 124.03 258.22C123.98 257.74 123.84 257.29 123.62 256.87C123.39 256.45 123.1 256.09 122.72 255.79C122.64 255.72 122.55 255.65 122.46 255.59L110.43 246.54ZM78.83 244.88L90.84 235.82L93.11 238.79L81.11 247.86L78.83 244.88ZM93.44 226.8C93.17 226.41 92.83 226.08 92.43 225.82C92.03 225.56 91.59 225.38 91.12 225.29C90.65 225.2 90.18 225.21 89.71 225.31C89.24 225.4 88.81 225.58 88.41 225.85L88.15 226.05L70.04 239.71C69.65 239.98 69.32 240.32 69.07 240.72C68.81 241.12 68.64 241.56 68.55 242.02C68.47 242.49 68.48 242.96 68.58 243.43C68.68 243.89 68.87 244.32 69.15 244.71C69.21 244.8 69.28 244.89 69.35 244.98L78.47 256.9C78.74 257.3 79.08 257.63 79.48 257.89C79.88 258.15 80.32 258.32 80.79 258.41C81.26 258.5 81.73 258.5 82.2 258.4C82.67 258.3 83.1 258.12 83.5 257.85L83.76 257.66L101.87 244C102.26 243.73 102.59 243.39 102.84 242.99C103.1 242.59 103.27 242.15 103.36 241.68C103.44 241.22 103.44 240.75 103.33 240.28C103.23 239.82 103.04 239.39 102.77 239C102.7 238.91 102.64 238.82 102.56 238.73L93.44 226.8ZM63.48 216.63L77.52 211.18L78.89 214.66L64.84 220.11L63.48 216.63ZM82.51 203.21C82.36 202.76 82.13 202.35 81.81 201.99C81.5 201.63 81.13 201.34 80.7 201.13C80.27 200.91 79.82 200.79 79.34 200.76C78.86 200.72 78.39 200.78 77.94 200.93C77.83 200.96 77.73 201 77.63 201.05L56.45 209.26C56 209.42 55.59 209.65 55.23 209.97C54.87 210.29 54.59 210.66 54.38 211.09C54.17 211.52 54.05 211.97 54.02 212.45C53.99 212.92 54.05 213.39 54.21 213.84C54.24 213.94 54.29 214.04 54.33 214.14L59.82 228.1C59.97 228.55 60.2 228.96 60.52 229.32C60.83 229.68 61.2 229.97 61.63 230.18C62.06 230.39 62.52 230.52 63 230.55C63.48 230.58 63.94 230.52 64.4 230.37C64.5 230.34 64.61 230.3 64.71 230.26L85.88 222.04C86.33 221.88 86.74 221.65 87.1 221.33C87.46 221.02 87.75 220.64 87.96 220.22C88.17 219.79 88.29 219.33 88.32 218.86C88.34 218.38 88.28 217.92 88.12 217.47C88.09 217.37 88.05 217.26 88 217.16L82.51 203.21ZM56.25 168.58L78.76 170.93L79.74 161.57L57.22 159.25L57.69 154.76L54.02 152.87L50.28 152.49L48.08 173.4L55.65 174.18L56.25 168.58ZM87.71 134.5L80.58 131.99L76.98 142.11L73.09 140.73L76.19 132.03L69.06 129.53L65.96 138.23L62.78 137.11L65.88 128.41L62.76 125.72L59.21 124.48L52.47 143.42L80.99 153.44L87.71 134.5ZM79.2 112.17L78.76 112.81L68.56 108.35L63.52 115.75L66.89 118L77.3 120.79L85.21 131.17L88.18 133.17L93.46 125.36L85.01 117L85.44 116.36L96.4 121.02L101.7 113.23L98.73 111.24L86.11 107.83L79.63 99.27L76.26 97.01L71.23 104.41L79.2 112.17ZM127.76 93.36L117.18 73.42L120.51 71.67L131.08 91.61L139.46 87.22L125.36 60.64L105.28 71.14L119.38 97.72L127.76 93.36ZM147.37 62.09L151.05 61.31L152.23 66.81L148.55 67.59L147.37 62.09ZM159.35 72.98C159.83 72.9 160.27 72.73 160.68 72.48C161.09 72.22 161.44 71.89 161.72 71.5C162 71.11 162.19 70.68 162.3 70.21C162.4 69.74 162.42 69.26 162.33 68.79C162.32 68.69 162.3 68.59 162.27 68.5L159.5 55.62C159.42 55.15 159.25 54.71 159 54.31C158.74 53.91 158.42 53.57 158.03 53.29C157.63 53.01 157.2 52.82 156.74 52.72C156.27 52.61 155.8 52.6 155.32 52.68C155.22 52.68 155.11 52.73 155 52.76L136.53 56.67L142.84 86.06L152.1 84.1L150.13 74.94L159.35 72.98ZM182.76 59.5L181.84 74.45L178.08 74.22L179.01 59.27L182.76 59.5ZM187.02 82.3C187.5 82.36 187.97 82.32 188.43 82.18C188.89 82.05 189.31 81.84 189.68 81.54C190.06 81.24 190.36 80.89 190.6 80.47C190.83 80.05 190.97 79.61 191.03 79.13C191.03 79.02 191.03 78.91 191.03 78.8L192.43 56.27C192.48 55.79 192.43 55.33 192.29 54.87C192.15 54.41 191.93 54 191.63 53.63C191.33 53.26 190.96 52.96 190.54 52.74C190.12 52.51 189.67 52.37 189.19 52.33C189.08 52.33 188.97 52.33 188.86 52.33L173.83 51.37C173.36 51.31 172.89 51.35 172.43 51.48C171.97 51.61 171.55 51.83 171.17 52.12C170.8 52.42 170.49 52.78 170.26 53.19C170.03 53.61 169.88 54.06 169.83 54.53C169.83 54.64 169.83 54.75 169.83 54.86L168.42 77.4C168.37 77.87 168.42 78.34 168.56 78.8C168.7 79.25 168.92 79.67 169.22 80.04C169.52 80.41 169.89 80.7 170.31 80.93C170.73 81.15 171.18 81.29 171.66 81.34C171.77 81.35 171.88 81.35 171.99 81.34L187.02 82.3ZM205.17 86.92L212.52 89.83L220.07 77.29L220.79 77.58L215.41 90.98L223.96 94.37L225.35 90.9L232.32 65.33L222.49 61.43L215.94 71.59L215.34 71.35L217.63 59.5L207.84 55.64L195.13 78.93L193.73 82.4L202.32 85.8L207.71 72.41L208.39 72.68L205.17 86.92ZM248.07 117.46L266.13 103.83L268.41 106.8L250.35 120.44L256.07 127.92L280.14 109.72L266.41 91.78L242.35 109.97L248.07 117.46ZM282.35 131.55L283.73 135.03L278.46 137.09L277.08 133.61L282.35 131.55ZM273.49 145.07C273.65 145.52 273.89 145.93 274.21 146.29C274.54 146.65 274.91 146.93 275.35 147.14C275.79 147.36 276.25 147.47 276.73 147.5C277.21 147.53 277.68 147.47 278.14 147.31C278.24 147.28 278.33 147.24 278.43 147.2L290.77 142.37C291.22 142.22 291.63 141.98 291.99 141.66C292.35 141.35 292.63 140.98 292.84 140.55C293.05 140.12 293.17 139.67 293.2 139.19C293.22 138.71 293.16 138.25 293 137.8C292.97 137.7 292.92 137.59 292.88 137.49L285.96 120.03L257.81 131.01L261.27 139.75L270.03 136.32L273.49 145.07ZM290.69 165.85L275.69 167.37L275.31 163.65L290.31 162.14L290.69 165.85ZM268.74 173.73C268.76 174.2 268.88 174.66 269.09 175.09C269.29 175.52 269.57 175.89 269.93 176.21C270.28 176.53 270.69 176.77 271.14 176.93C271.59 177.09 272.06 177.16 272.54 177.13C272.65 177.13 272.76 177.13 272.87 177.1L295.48 174.82C295.96 174.79 296.42 174.67 296.85 174.46C297.28 174.25 297.65 173.97 297.97 173.61C298.29 173.25 298.53 172.85 298.68 172.4C298.84 171.95 298.9 171.49 298.87 171.01C298.86 170.9 298.85 170.79 298.83 170.68L297.31 155.77C297.28 155.3 297.17 154.85 296.96 154.42C296.76 153.99 296.48 153.61 296.12 153.29C295.77 152.97 295.36 152.73 294.91 152.57C294.46 152.41 294 152.34 293.52 152.36C293.41 152.36 293.29 152.36 293.18 152.4L270.57 154.68C270.09 154.71 269.64 154.83 269.2 155.04C268.77 155.25 268.4 155.53 268.08 155.88C267.76 156.24 267.52 156.64 267.37 157.09C267.21 157.54 267.14 158 267.17 158.48C267.18 158.59 267.19 158.7 267.21 158.81L268.74 173.73ZM273.84 196.95L274.53 193.36L288.96 198.4L288.71 199.71L273.84 196.95ZM269.42 179.81L264.19 207.23L271.62 208.63L272.08 206.18L294.37 210.38L297.75 192.67L276.32 183.96L276.85 181.21L269.42 179.81ZM257.21 220.59L277.35 239.51L280.72 241.16L284.61 233.34L274.8 226.53L275.26 225.6L286.93 228.65L290.94 220.56L287.56 218.91L266.78 217.4L264.26 214.82L260.89 213.17L257.21 220.59ZM259.39 250.67L260.51 249.41L268.75 256.61L275 249.55L252.28 229.71L246.03 236.77L254.83 244.45L253.72 245.71L243.23 239.94L237.01 246.97L239.84 249.43L251.85 254.32L257.4 263.79L260.22 266.25L266.13 259.58L259.39 250.67ZM243.97 269.51L231.18 250.95L223.37 256.26L236.16 274.82L232.41 277.37L233.34 281.36L235.46 284.45L252.93 272.56L248.64 266.33L243.97 269.51Z" fill="#FFFFFF" fill-opacity="1.000000" fill-rule="evenodd"/>
		<path id="ООО_ТПП_копия" d="M126.85 340.62L126.85 350.17L124.45 350.17L124.45 340.62L126.85 340.62ZM130.46 354.96C130.76 354.98 131.06 354.93 131.35 354.83C131.64 354.73 131.89 354.58 132.12 354.37C132.35 354.17 132.53 353.93 132.66 353.66C132.79 353.38 132.86 353.09 132.88 352.79C132.88 352.72 132.88 352.65 132.88 352.58L132.88 338.19C132.89 337.88 132.85 337.59 132.74 337.3C132.63 337.02 132.48 336.77 132.27 336.54C132.06 336.32 131.82 336.14 131.54 336.02C131.27 335.89 130.98 335.82 130.67 335.81L120.84 335.81C120.54 335.79 120.24 335.84 119.95 335.94C119.66 336.04 119.41 336.19 119.18 336.39C118.95 336.6 118.77 336.84 118.64 337.11C118.51 337.38 118.43 337.67 118.42 337.98C118.41 338.05 118.41 338.12 118.42 338.19L118.42 352.58C118.4 352.88 118.45 353.18 118.56 353.46C118.66 353.75 118.82 354 119.03 354.23C119.24 354.45 119.48 354.63 119.76 354.75C120.03 354.88 120.33 354.95 120.63 354.96L130.46 354.96ZM143.51 340.62L143.51 350.17L141.12 350.17L141.12 340.62L143.51 340.62ZM147.12 354.96C147.43 354.98 147.73 354.93 148.01 354.83C148.3 354.73 148.56 354.58 148.79 354.37C149.02 354.17 149.19 353.93 149.33 353.65C149.46 353.38 149.53 353.09 149.55 352.78C149.55 352.72 149.55 352.65 149.55 352.58L149.55 338.19C149.56 337.88 149.51 337.59 149.41 337.3C149.3 337.02 149.14 336.76 148.94 336.54C148.73 336.32 148.49 336.14 148.21 336.02C147.93 335.89 147.64 335.82 147.33 335.81L137.51 335.81C137.2 335.79 136.91 335.83 136.62 335.93C136.33 336.03 136.08 336.18 135.85 336.38C135.62 336.59 135.44 336.82 135.31 337.09C135.18 337.37 135.1 337.65 135.08 337.95C135.08 338.03 135.08 338.1 135.08 338.17L135.08 352.56C135.07 352.87 135.12 353.16 135.22 353.45C135.33 353.73 135.48 353.99 135.69 354.21C135.9 354.43 136.14 354.61 136.42 354.74C136.7 354.86 136.99 354.93 137.3 354.94L147.12 354.96ZM160.18 340.62L160.18 350.17L157.78 350.17L157.78 340.62L160.18 340.62ZM163.78 354.96C164.09 354.98 164.39 354.93 164.68 354.83C164.97 354.73 165.22 354.58 165.45 354.37C165.68 354.17 165.86 353.93 165.99 353.66C166.12 353.38 166.19 353.09 166.21 352.79C166.21 352.72 166.21 352.65 166.21 352.58L166.21 338.19C166.22 337.88 166.18 337.59 166.07 337.3C165.96 337.02 165.81 336.77 165.6 336.54C165.39 336.32 165.15 336.14 164.87 336.02C164.6 335.89 164.31 335.82 164 335.81L154.17 335.81C153.87 335.79 153.57 335.84 153.28 335.94C152.99 336.04 152.74 336.19 152.51 336.39C152.28 336.6 152.1 336.84 151.97 337.11C151.84 337.38 151.76 337.67 151.75 337.98C151.74 338.05 151.74 338.12 151.75 338.19L151.75 352.58C151.73 352.88 151.78 353.18 151.89 353.46C151.99 353.75 152.15 354 152.36 354.23C152.57 354.45 152.81 354.63 153.09 354.75C153.37 354.88 153.66 354.95 153.96 354.96L163.78 354.96ZM184.69 340.62L184.69 354.96L190.74 354.96L190.74 340.62L193.64 340.62L194.6 338.19L194.6 335.81L181.1 335.81L181.1 340.62L184.69 340.62ZM201.98 354.96L201.98 340.59L204.38 340.59L204.38 354.96L210.43 354.96L210.43 335.81L195.96 335.81L195.96 354.96L201.98 354.96ZM218.64 354.96L218.64 340.59L221.04 340.59L221.04 354.96L227.09 354.96L227.09 335.81L212.63 335.81L212.63 354.96L218.64 354.96Z" fill="#010B2D" fill-opacity="1.000000" fill-rule="evenodd"/>
		<rect id="Прямоугольник_1" x="104.696289" y="317.740051" width="137.849365" height="11.590085" fill="#010B2D" fill-opacity="1.000000"/>
		<rect id="Прямоугольник_2" x="136.673828" y="294.130585" width="74.758430" height="27.043531" fill="#010B2D" fill-opacity="1.000000"/>
		<rect id="Прямоугольник_2_копия" x="143.587891" y="220.297455" width="15.988797" height="87.569527" fill="#010B2D" fill-opacity="1.000000"/>
		<rect id="Прямоугольник_2_копия_3" x="187.665039" y="230.565399" width="15.988797" height="77.305847" fill="#010B2D" fill-opacity="1.000000"/>
		<rect id="Прямоугольник_2_копия_2" x="165.626465" y="212.141479" width="15.988797" height="95.725517" fill="#010B2D" fill-opacity="1.000000"/>
	</g>
</svg>
